<svg id="_0428_apple" xmlns="http://www.w3.org/2000/svg" viewBox="0 0 500 500" data-imageid="apple-45" imageName="Apple" class="illustrations_image" style="width: 188px;"><defs><style>.cls-1_apple-45{opacity:.19;}.cls-1_apple-45,.cls-2_apple-45,.cls-3_apple-45{fill:#fff;}.cls-4_apple-45{fill:none;stroke:#24285b;stroke-linecap:round;stroke-miterlimit:10;stroke-width:3px;}.cls-5_apple-45{fill:#e6e6e6;opacity:.3;}.cls-2_apple-45{opacity:.64;}.cls-6_apple-45{fill:#000001;opacity:.05;}.cls-7_apple-45{fill:#24285b;}.cls-3_apple-45{opacity:.6;}.cls-8_apple-45{fill:#ffd200;}.cls-9_apple-45{fill:#68e1fd;}</style></defs><ellipse id="sd_apple-45" class="cls-5_apple-45" cx="254.83" cy="382.18" rx="229.15" ry="57.36"/><g id="apple_apple-45"><path class="cls-8_apple-45" d="m67.91,147.63s80.49-61.63,156.09-37.4c75.6,24.23,108.92,42.36,80,147.93-28.92,105.57-25.5,127.97-80,120.5-54.5-7.46-42.77,6.89-82.22,1.31-39.46-5.58-163.73-118.93-73.87-232.34Z"/><path class="cls-6_apple-45" d="m209.7,189.94s-44.41,18.79-48.4,76.7,4.02,114.26,4.02,114.26c0,0,17.95-4.78,32.42-4.44,3.97.09,47.24,5.37,58.82.95,11.58-4.43-46.85-187.46-46.85-187.46Z"/><path class="cls-8_apple-45" d="m199.43,206.83s-32.88,66.04,19.04,138.75c51.92,72.71,160.84,67.35,217.71,6.63,56.87-60.72-69.07-205.07-236.75-145.38Z"/><path class="cls-8_apple-45" d="m274.58,296.28s-86.38-10.98-79.24-74.29c7.14-63.31,135.95-113.25,187.87-44.35,0,0,62.9-11.83,75.88,39.02,12.98,50.85,22.18,156.69-91.25,155.69-113.43-1-93.26-76.08-93.26-76.08Z"/><path class="cls-2_apple-45" d="m274.58,296.28s-86.38-10.98-79.24-74.29c7.14-63.31,135.95-113.25,187.87-44.35,0,0,62.9-11.83,75.88,39.02,12.98,50.85,22.18,156.69-91.25,155.69-113.43-1-93.26-76.08-93.26-76.08Z"/><path class="cls-3_apple-45" d="m300.07,279.09s-47.18-6-43.28-40.58c3.9-34.58,74.26-61.86,102.62-24.22,0,0,34.36-6.46,41.45,21.31,7.09,27.78,12.12,85.59-49.85,85.05-61.96-.55-50.94-41.56-50.94-41.56Z"/><path class="cls-4_apple-45" d="m171.78,133.77s3.33-51.35-34.61-73.32"/><path class="cls-6_apple-45" d="m160.46,122.2s-41.94,7.48-37.28,25.45c4.66,17.97,57.91,5.99,83.87,0,25.96-5.99,21.3-30.27-46.6-25.45Z"/><path class="cls-9_apple-45 targetColor" d="m162.41,88.03S31.99,57.13,16.02,192.65c0,0,173.64,28.13,146.4-104.62Z" style="fill: rgb(104, 225, 253);"/><path class="cls-4_apple-45" d="m284.94,285.42s56.76-39.84,98.27-107.77"/><path class="cls-7_apple-45" d="m319.59,223.54s-26.67-9.81-28.91,3.48c-2.24,13.29,21.27,10.28,28.91-3.48Z"/><path class="cls-7_apple-45" d="m350.52,248.4s-10.52,32.48,5.54,34.55c16.06,2.07,11.35-26.02-5.54-34.55Z"/><path class="cls-1_apple-45" d="m35.99,177.65s57.15-65.7,126.43-89.62l2.9,18.15s-28.48-3.72-129.33,71.46Z"/></g></svg>