<svg id="_0419_steak" xmlns="http://www.w3.org/2000/svg" xmlns:xlink="http://www.w3.org/1999/xlink" viewBox="0 0 500 500" data-imageid="steak-27" imageName="Steak" class="illustrations_image" style="width: 188px;"><defs><style>.cls-1_steak-27{fill:url(#linear-gradient);}.cls-1_steak-27,.cls-2_steak-27,.cls-3_steak-27,.cls-4_steak-27,.cls-5_steak-27,.cls-6_steak-27,.cls-7_steak-27,.cls-8_steak-27,.cls-9_steak-27,.cls-10_steak-27,.cls-11_steak-27,.cls-12_steak-27,.cls-13_steak-27,.cls-14_steak-27,.cls-15_steak-27,.cls-16_steak-27,.cls-17_steak-27,.cls-18_steak-27,.cls-19_steak-27,.cls-20_steak-27,.cls-21_steak-27,.cls-22_steak-27,.cls-23_steak-27{stroke-width:0px;}.cls-2_steak-27{isolation:isolate;opacity:.18;}.cls-2_steak-27,.cls-23_steak-27{fill:#68e1fd;}.cls-3_steak-27{fill:url(#linear-gradient-11-steak-27);}.cls-4_steak-27{fill:url(#linear-gradient-12-steak-27);}.cls-5_steak-27{fill:url(#linear-gradient-13-steak-27);}.cls-6_steak-27{fill:url(#linear-gradient-10-steak-27);}.cls-7_steak-27{fill:url(#linear-gradient-17-steak-27);}.cls-8_steak-27{fill:url(#linear-gradient-16-steak-27);}.cls-9_steak-27{fill:url(#linear-gradient-19-steak-27);}.cls-10_steak-27{fill:url(#linear-gradient-15-steak-27);}.cls-11_steak-27{fill:url(#linear-gradient-18-steak-27);}.cls-12_steak-27{fill:url(#linear-gradient-14-steak-27);}.cls-13_steak-27{fill:url(#linear-gradient-20-steak-27);}.cls-24_steak-27{opacity:.48;}.cls-14_steak-27{fill:url(#linear-gradient-4-steak-27);}.cls-15_steak-27{fill:url(#linear-gradient-2-steak-27);}.cls-16_steak-27{fill:url(#linear-gradient-3-steak-27);}.cls-17_steak-27{fill:url(#linear-gradient-8-steak-27);}.cls-18_steak-27{fill:url(#linear-gradient-9-steak-27);}.cls-19_steak-27{fill:url(#linear-gradient-7-steak-27);}.cls-20_steak-27{fill:url(#linear-gradient-5-steak-27);}.cls-21_steak-27{fill:url(#linear-gradient-6-steak-27);}.cls-22_steak-27{fill:#fff;}</style><linearGradient id="linear-gradient-steak-27" x1="-353.98" y1="2033.03" x2="35.15" y2="2033.03" gradientTransform="translate(389.54 2304.33) scale(1 -1)" gradientUnits="userSpaceOnUse"><stop offset="0" stop-color="#231f20" stop-opacity="0"/><stop offset="1" stop-color="#231f20"/></linearGradient><linearGradient id="linear-gradient-2-steak-27" x1="-77.9" y1="2118.13" x2="54.21" y2="2118.13" xlink:href="#linear-gradient-steak-27"/><linearGradient id="linear-gradient-3-steak-27" x1="171.47" y1="128.97" x2="322.96" y2="488.64" gradientTransform="matrix(1,0,0,1,0,0)" xlink:href="#linear-gradient-steak-27"/><linearGradient id="linear-gradient-4-steak-27" x1="-240.95" y1="2201.96" x2="-119.62" y2="1971.99" xlink:href="#linear-gradient-steak-27"/><linearGradient id="linear-gradient-5-steak-27" x1="189.91" y1="194" x2="344.34" y2="397.29" gradientTransform="matrix(1,0,0,1,0,0)" xlink:href="#linear-gradient-steak-27"/><linearGradient id="linear-gradient-6-steak-27" x1="90.22" y1="209.02" x2="340.43" y2="504.18" gradientTransform="matrix(1,0,0,1,0,0)" xlink:href="#linear-gradient-steak-27"/><linearGradient id="linear-gradient-7-steak-27" x1="123.21" y1="181.05" x2="373.42" y2="476.22" gradientTransform="matrix(1,0,0,1,0,0)" xlink:href="#linear-gradient-steak-27"/><linearGradient id="linear-gradient-8-steak-27" x1="141" y1="165.97" x2="391.21" y2="461.14" gradientTransform="matrix(1,0,0,1,0,0)" xlink:href="#linear-gradient-steak-27"/><linearGradient id="linear-gradient-9-steak-27" x1="168.52" y1="142.65" x2="418.72" y2="437.81" gradientTransform="matrix(1,0,0,1,0,0)" xlink:href="#linear-gradient-steak-27"/><linearGradient id="linear-gradient-10-steak-27" x1="213.74" y1="104.31" x2="463.95" y2="399.48" gradientTransform="matrix(1,0,0,1,0,0)" xlink:href="#linear-gradient-steak-27"/><linearGradient id="linear-gradient-11-steak-27" x1="191.57" y1="123.1" x2="441.78" y2="418.27" gradientTransform="matrix(1,0,0,1,0,0)" xlink:href="#linear-gradient-steak-27"/><linearGradient id="linear-gradient-12-steak-27" x1="-264.65" y1="2127.26" x2="-168.16" y2="1869.96" xlink:href="#linear-gradient-steak-27"/><linearGradient id="linear-gradient-13-steak-27" x1="-250.02" y1="2132.74" x2="-153.53" y2="1875.44" xlink:href="#linear-gradient-steak-27"/><linearGradient id="linear-gradient-14-steak-27" x1="135.18" y1="170.9" x2="385.39" y2="466.07" gradientTransform="matrix(1,0,0,1,0,0)" xlink:href="#linear-gradient-steak-27"/><linearGradient id="linear-gradient-15-steak-27" x1="171.83" y1="139.84" x2="422.04" y2="435.01" gradientTransform="matrix(1,0,0,1,0,0)" xlink:href="#linear-gradient-steak-27"/><linearGradient id="linear-gradient-16-steak-27" x1="-148.86" y1="2170.68" x2="-52.38" y2="1913.38" xlink:href="#linear-gradient-steak-27"/><linearGradient id="linear-gradient-17-steak-27" x1="-297.86" y1="2032.66" x2="-27.7" y2="2032.66" xlink:href="#linear-gradient-steak-27"/><linearGradient id="linear-gradient-18-steak-27" x1="277.8" y1="263.94" x2="323.41" y2="286.1" gradientUnits="userSpaceOnUse"><stop offset="0" stop-color="#fff" stop-opacity="0"/><stop offset="1" stop-color="#fff"/></linearGradient><linearGradient id="linear-gradient-19-steak-27" x1="-24.47" y1="2121.32" x2="-15.54" y2="1986.12" xlink:href="#linear-gradient-steak-27"/><linearGradient id="linear-gradient-20-steak-27" x1="372.36" y1="216.59" x2="389.31" y2="260.9" gradientTransform="matrix(1,0,0,1,0,0)" xlink:href="#linear-gradient-steak-27"/></defs><g id="background_steak-27"><path class="cls-2_steak-27 targetColor" d="M9.11,241.86c-14.59,46.84-6.27,121.91,33.15,156.34,12.26,10.7,27.71,17.05,43.27,21.83,22.88,7.03,42.5,6.66,65.8,5.35,73.77-4.14,146.68-18.02,216.81-41.26,16.8-5.56,33.49-11.71,49.03-20.21,28.57-15.66,52.91-39.64,66.94-69.03,14.04-29.4,17.31-64.23,6.85-95.09-12.5-36.85-42.36-64.68-71.19-90.86-47.63-43.29-101.78-79.06-167.03-86.99-16.32-1.98-33.39-2.23-48.62,3.98-16.21,6.61-28.73,19.88-39.44,33.72-24.47,31.63-42.36,68.21-68.86,98.12-28.96,32.68-72.9,39.77-86.71,84.11Z" style="fill: rgb(104, 225, 253);"/><path class="cls-2_steak-27 targetColor" d="M439.86,171.98l19.37,6.22c1.78.38,3.39,1.31,4.6,2.67,2.81,3.97-2.35,8.68-6.73,10.79-17.45,8.46-34.97,16.72-52.54,24.78,13.27,12.56,29.19,21.97,46.58,27.56,2.98.95,6.49,2.28,7.19,5.33.62,2.65-1.29,5.17-3.17,7.06-7.93,7.63-18.55,11.74-28.7,16.02-66.08,27.92-124.57,71.11-188.95,102.76-12.09,5.95-24.94,11.6-38.39,11.11-2.39,0-4.75-.44-6.96-1.33-2.81-1.51-5.28-3.58-7.25-6.09l-15.69-17.25c-2.08-1.98-3.71-4.39-4.76-7.06-.58-2.55-.58-5.2,0-7.76,4.14-26.27,21.2-49.18,42.04-65.68,20.85-16.5,45.44-27.54,69.81-38.2,24.37-10.66,49.09-21.31,70.39-37.24,7.93-5.87,15.34-12.5,24.32-16.45,5.73-2.52,11.93-3.89,17.45-6.66.8-.31,1.48-.87,1.95-1.59,1.24-2.36-2.13-4.33-3.73-6.47-2.63-3.49-.35-8.44,1.95-12.17,4.76-7.65,10.74-16.13,19.7-16.85,10.87-.87,18.58,9.99,23.91,19.5" style="fill: rgb(104, 225, 253);"/></g><g id="steak_steak-27"><path class="cls-23_steak-27 targetColor" d="M174.52,378.59l-130.25-75.2c-12.9-7.46-11.28-20.47,3.62-29.06l187.49-108.23c14.91-8.61,37.44-9.52,50.36-2.09l130.25,75.2c12.9,7.46,11.28,20.47-3.62,29.06l-187.49,108.23c-14.88,8.61-37.44,9.53-50.36,2.09Z" style="fill: rgb(104, 225, 253);"/><path class="cls-23_steak-27 targetColor" d="M438.04,158.53l-12.47-7.2c-7.58-4.38-19.83-4.41-27.38,0l-80.91,46.67c-7.54,4.35-7.5,11.44.1,15.86l12.45,7.2c7.58,4.38,19.86,4.39,27.4,0l80.91-46.67c7.54-4.49,7.49-11.57-.1-15.86ZM402.96,172.3c-5.11-2.95-5.12-7.69,0-10.61,5.77-2.94,12.6-2.94,18.37,0,5.11,2.94,5.12,7.68,0,10.61-5.79,2.9-12.61,2.87-18.37-.08v.08Z" style="fill: rgb(104, 225, 253);"/><path class="cls-1_steak-27" d="M174.52,378.59l-130.25-75.2c-12.9-7.46-11.28-20.47,3.62-29.06l187.49-108.23c14.91-8.61,37.44-9.52,50.36-2.09l130.25,75.2c12.9,7.46,11.28,20.47-3.62,29.06l-187.49,108.23c-14.88,8.61-37.44,9.53-50.36,2.09Z"/><path class="cls-15_steak-27" d="M438.04,158.53l-12.47-7.2c-7.58-4.38-19.83-4.41-27.38,0l-80.91,46.67c-7.54,4.35-7.5,11.44.1,15.86l12.45,7.2c7.58,4.38,19.86,4.39,27.4,0l80.91-46.67c7.54-4.49,7.49-11.57-.1-15.86ZM402.96,172.3c-5.11-2.95-5.12-7.69,0-10.61,5.77-2.94,12.6-2.94,18.37,0,5.11,2.94,5.12,7.68,0,10.61-5.79,2.9-12.61,2.87-18.37-.08v.08Z"/><path class="cls-23_steak-27 targetColor" d="M174.52,369.36l-130.25-75.2c-12.9-7.46-11.28-20.47,3.62-29.06l187.49-108.15c14.91-8.61,37.44-9.52,50.36-2.09l130.25,75.2c12.9,7.46,11.28,20.47-3.62,29.06l-187.49,108.15c-14.88,8.61-37.44,9.55-50.36,2.09Z" style="fill: rgb(104, 225, 253);"/><path class="cls-23_steak-27 targetColor" d="M438.04,149.22l-12.47-7.2c-7.58-4.38-19.83-4.39-27.38,0l-80.91,46.67c-7.54,4.36-7.5,11.44.1,15.86l12.45,7.2c7.58,4.38,19.86,4.39,27.4,0l80.91-46.67c7.54-4.41,7.49-11.49-.1-15.86ZM402.96,162.99c-5.11-2.95-5.12-7.69,0-10.61,5.77-2.94,12.6-2.94,18.37,0,5.11,2.94,5.12,7.68,0,10.61-5.77,2.93-12.6,2.93-18.37,0Z" style="fill: rgb(104, 225, 253);"/><path class="cls-23_steak-27 targetColor" d="M223.89,173.49c-19.51,13.81-42.27,22.32-66.06,24.7-7.71.76-15.58.89-22.99,3.17-9.39,2.89-17.45,9.04-24.88,15.42-8.44,7.2-16.74,15.18-20.97,25.38-4.76,11.33-3.82,24.46.67,35.87,4.49,11.41,12.34,21.23,21.29,29.6,6.17,6.1,13.39,11.04,21.31,14.6,6.16,2.33,12.54,4.05,19.04,5.14l52.8,10.63c4.08.81,8.27,1.59,12.34.84,4.11-1.07,7.93-3.03,11.2-5.74,38.41-28.27,62.44-73.6,103.01-98.7,9.2-5.7,20.62-13.01,19.24-23.8-.54-4.11-3.01-7.66-5.43-11.01-6.43-8.93-13.98-18.42-24.77-20.62-17.23-3.41-29.94-10.01-46.01-16.5-20.86-8.23-32.7-1.11-49.8,11.01Z" style="fill: rgb(104, 225, 253);"/><path class="cls-16_steak-27" d="M330.57,234.41c-40.57,25.1-64.59,70.41-103.01,98.7-3.27,2.71-7.09,4.67-11.2,5.74-4.06.79-8.25,0-12.33-.84l-52.74-10.63c-6.5-1.09-12.87-2.81-19.04-5.14-7.91-3.55-15.13-8.49-21.31-14.58-8.95-8.38-16.82-18.2-21.29-29.6-3.15-7.87-4.32-16.4-3.41-24.83.41-3.81,1.36-7.55,2.81-11.11,4.24-10.26,12.53-18.24,20.97-25.38,7.47-6.35,15.48-12.53,24.88-15.42,7.41-2.28,15.26-2.4,22.97-3.17,23.78-2.37,46.54-10.87,66.06-24.67,17.12-12.12,28.92-19.24,49.72-10.9,16.17,6.49,28.87,13.09,46.1,16.5,6.76,1.35,12.25,5.57,16.96,10.72,2.8,3.12,5.4,6.4,7.81,9.84,2.41,3.35,4.89,6.9,5.43,11.01,1.35,10.76-10.11,18.07-19.39,23.77Z"/><path class="cls-14_steak-27" d="M336.66,189.82c-4.23,4.06-8.95,7.59-14.06,10.49-40.57,25.1-64.6,70.41-103.01,98.68-3.27,2.71-7.09,4.67-11.2,5.74-4.13.53-8.32.24-12.34-.84l-52.8-10.63c-6.5-1.08-12.88-2.8-19.04-5.14-7.92-3.54-15.15-8.48-21.32-14.58-6.49-5.94-12.09-12.78-16.64-20.31.41-3.81,1.36-7.55,2.81-11.11,4.24-10.26,12.53-18.24,20.97-25.38,7.47-6.35,15.48-12.53,24.88-15.42,7.41-2.28,15.26-2.4,22.97-3.17,23.78-2.37,46.54-10.87,66.06-24.67,17.12-12.12,28.92-19.24,49.72-10.9,16.17,6.49,28.87,13.09,46.1,16.5,6.7,1.36,12.18,5.58,16.9,10.74Z"/><path class="cls-23_steak-27 targetColor" d="M332.15,191.34c-4.08,3.92-8.63,7.32-13.55,10.11-8.46,5.33-16.4,11.46-23.69,18.31-1.24,1.13-2.46,2.29-3.66,3.47-24.5,23.65-44.42,53.05-71.95,73.33-3.14,2.62-6.83,4.51-10.79,5.54-3.98.51-8.02.24-11.9-.81l-50.89-10.23c-6.26-1.05-12.39-2.71-18.32-4.97-7.67-3.4-14.65-8.17-20.62-14.06-6.27-5.72-11.7-12.31-16.12-19.56.4-3.66,1.32-7.24,2.71-10.65,4.08-9.9,12.07-17.59,20.21-24.53,7.2-6.16,14.93-12.09,23.97-14.87,7.16-2.21,14.72-2.32,22.21-3.05,22.93-2.29,44.87-10.49,63.68-23.8,16.5-11.68,27.87-18.55,47.91-10.5,7.65,3.06,14.47,6.16,21.4,8.88,1.68.67,3.36,1.32,5.08,1.92,5.85,2.16,11.85,3.87,17.96,5.11,6.5,1.33,11.8,5.38,16.36,10.34Z" style="fill: rgb(104, 225, 253);"/><path class="cls-20_steak-27" d="M332.15,191.34c-4.08,3.92-8.63,7.32-13.55,10.11-8.46,5.33-16.4,11.46-23.69,18.31-1.24,1.13-2.46,2.29-3.66,3.47-24.5,23.65-44.42,53.05-71.95,73.33-3.14,2.62-6.83,4.51-10.79,5.54-3.98.51-8.02.24-11.9-.81l-50.89-10.23c-6.26-1.05-12.39-2.71-18.32-4.97-7.67-3.4-14.65-8.17-20.62-14.06-6.27-5.72-11.7-12.31-16.12-19.56.4-3.66,1.32-7.24,2.71-10.65,4.08-9.9,12.07-17.59,20.21-24.53,7.2-6.16,14.93-12.09,23.97-14.87,7.16-2.21,14.72-2.32,22.21-3.05,22.93-2.29,44.87-10.49,63.68-23.8,16.5-11.68,27.87-18.55,47.91-10.5,7.65,3.06,14.47,6.16,21.4,8.88,1.68.67,3.36,1.32,5.08,1.92,5.85,2.16,11.85,3.87,17.96,5.11,6.5,1.33,11.8,5.38,16.36,10.34Z"/><path class="cls-21_steak-27" d="M118.21,244.04c-.13,11.71-.29,23.53-2.95,34.9.62.62,1.62.62,2.24,0,.54-.66.88-1.47.97-2.32,3.18-15.62,4.72-31.53,4.62-47.47-.16-3.47,0-6.94.49-10.38.67-3.65,2.09-7.73,0-10.8-1.59,1.82-4.32,4.01-5.05,6.35-.89,2.79-.08,7.2-.11,10.15l-.21,19.56Z"/><path class="cls-19_steak-27" d="M178.26,232.03c0,6.82-.16,13.64-.75,20.45-.3,3.38-.71,6.76-1.32,10.11-.36,1.48-.65,2.98-.86,4.49-.32,4.62,1.03,9.6.98,14.28,0,5.78-.35,11.56-1.06,17.29l5.19.19c.15.06.31.06.46,0,.21-.17.14-.51,0-.76-2.59-8.58-.7-18.15-1.59-26.97-.41-2.22-.68-4.47-.82-6.73.25-2.19.66-4.37,1.21-6.5,1.54-8.95,2.55-17.99,3.03-27.07.23-4.54.33-9.08.3-13.63-.16-3.46,0-6.93.49-10.36.7-2.5,1.06-5.07,1.08-7.66-.08-.92-.32-2.63-1.17-3.17-1.47-.38-3-.45-4.49-.19-.27-.02-.53.08-.71.29-.1.28-.06.59.11.84.83,2.36,1.05,4.88.67,7.35-.63,9.25-.75,18.47-.75,27.76Z"/><path class="cls-17_steak-27" d="M204.73,216.42c-.13,11.71-.27,23.53-2.95,34.9,2.27,3.17,1.16,10.14,1.16,14.14-.19,5.15.26,10.31,1.33,15.36.64,1.79.86,3.71.62,5.6-.43,1.21-.96,2.37-1.59,3.49-.83,2.3-1.21,4.73-1.11,7.17-.2,2.98,0,5.97.6,8.9,1.39-.07,2.62-.92,3.17-2.21.53-1.26.8-2.6.79-3.97.48-7.76.48-15.52.43-23.27.04-2.08-.09-4.16-.4-6.22-.78-4.47-3.17-8.79-2.52-13.28.25-2.03.32-4.07.24-6.11.18-1.7.53-3.38,1.05-5.01.94-4.87,1.71-9.77,2.3-14.71,1.21-9.85,1.78-19.77,1.71-29.7-.16-3.46,0-6.93.49-10.36.67-3.65,2.09-7.73,0-10.82-1.59,1.84-4.32,4.01-5.05,6.35-.89,2.78-.08,7.19-.11,10.14l-.17,19.61Z"/><path class="cls-18_steak-27" d="M236.74,208.28c0,6.82-.16,13.66-.75,20.45-.29,3.4-.7,6.77-1.3,10.12-.36,1.48-.65,2.97-.86,4.47.06,1.71.23,3.42.51,5.11.35,5.43-3.51,9.34-1.68,14.36,1.88,5.73,2.27,11.83,1.16,17.75-.5,1.63-.37,3.39.35,4.93,1.71-1.56,2.83-3.67,3.17-5.97.35-2.28.38-4.6.08-6.89-.25-1.82-.34-3.66-.25-5.49.27-3.17,1.46-5.73,1.32-8.95-.14-3.63-.25-7.25-.62-10.88-.42-2.22-.69-4.46-.82-6.71.25-2.2.65-4.38,1.19-6.52,1.55-8.95,2.56-17.99,3.03-27.07.23-4.54.34-9.07.32-13.61-.16-3.47,0-6.94.49-10.38.7-2.49,1.06-5.06,1.06-7.65-.21-2.47-1.19-4.58-.9-7.16.14-.79.23-1.59.25-2.4.04-.81-.24-1.61-.78-2.22-.04-.05-.11-.09-.17-.1-.04-.02-.09-.02-.13,0-1.18.55-2.17,1.42-2.86,2.52-.32.71-.5,1.49-.52,2.27-.16,1.81-.87,3.87-.86,5.58,0,2.21.56,4.3.38,6.58-.59,9.3-.71,18.53-.81,27.81Z"/><path class="cls-6_steak-27" d="M297.25,178.49c-.49,3.44-.65,6.91-.49,10.38,0,4.54-.11,9.07-.32,13.61-.3,5.77-.82,11.55-1.59,17.28-1.24,1.13-2.46,2.29-3.66,3.47.52-6.49.6-12.98.67-19.48.1-9.3.16-18.51.84-27.76.05-.67.05-1.33,0-2,1.68.67,3.36,1.32,5.08,1.92-.14.87-.35,1.67-.52,2.59Z"/><path class="cls-3_steak-27" d="M262.06,198c0,6.82-.16,13.66-.75,20.45-.29,3.4-.71,6.77-1.32,10.12-.35,1.49-.63,3-.82,4.52-.03,3.57.24,7.14.79,10.66.3,3.43.43,6.87.38,10.31,0,.6.13,1.4.73,1.48.31.02.61-.09.84-.29.92-.45,1.64-1.22,2.01-2.17.08-.37.11-.75.1-1.13v-11.49c.15-1.96-.04-3.94-.56-5.84-.66-1.35-1.01-2.82-1.03-4.32.25-2.2.66-4.38,1.21-6.52,1.54-8.95,2.55-17.99,3.03-27.07.24-4.54.34-9.07.3-13.61-.16-3.47.01-6.94.51-10.38.7-2.49,1.06-5.06,1.06-7.65-.08-.94-.32-2.65-1.17-3.17-1.47-.37-3-.43-4.49-.19-.27-.02-.54.09-.71.3-.14.24,0,.56.11.82.82,2.36,1.06,4.89.68,7.36-.75,9.27-.81,18.45-.9,27.78Z"/><g class="cls-24_steak-27"><path class="cls-4_steak-27" d="M150.23,235.9c0,6.82-.16,13.64-.75,20.45-.29,3.38-.7,6.76-1.3,10.11-.36,1.48-.65,2.98-.86,4.49.05,1.71.22,3.42.51,5.11.27,4.12-1.59,8.04-3.17,11.88-.2.36-.26.79-.17,1.19.19.51.78.73,1.27.98.75.48,1.47,1.01,2.16,1.59.71.57,1.64.77,2.52.54,1.3-.49,1.59-2.21,1.59-3.6.01-4.57-.2-9.14-.65-13.69-.42-2.22-.69-4.47-.82-6.73.24-2.19.64-4.37,1.19-6.5,1.55-8.94,2.57-17.97,3.05-27.03.24-4.54.34-9.08.3-13.63-.16-3.46.01-6.93.51-10.36.7-2.49,1.06-5.07,1.06-7.66,0-.92-.32-2.63-1.16-3.17-1.47-.38-3-.45-4.49-.19-.27-.02-.53.08-.71.29-.16.25,0,.57.1.84.83,2.35,1.07,4.88.68,7.35-.68,9.25-.75,18.47-.84,27.76Z"/><path class="cls-5_steak-27" d="M156.94,258.8c5.09.41,10.14,1.17,15.12,2.28,5.3,1.46,10.2,4.12,15.36,6.03,11.11,4.09,23.24,4.6,35.01,3.38,8.08-.82,16.63-2.36,24.05.92-.73.75-1.75,1.15-2.79,1.08-25.18,1.7-51.23,3.28-74.88-5.46-4.89-1.79-9.65-4.03-14.75-5.01-7.62-1.46-15.86,0-22.97-2.98-4.25-1.73-7.77-4.76-11.77-7.09-4.76-2.7-10.09-4.16-15.06-6.35-2.6-1.08-5.04-2.51-7.25-4.25-2.14-1.76-2.51-3.73.78-3,3.03.68,6.35,3,9.14,4.3s6.12,2.78,9.22,4.11c6.17,2.63,12.42,5.06,18.8,7.08,7.17,2.31,14.54,3.97,22,4.97Z"/><path class="cls-12_steak-27" d="M136.08,223.09c10.9,2.17,21.26,6.7,32.19,8.71,9.31,1.71,18.85,1.59,28.32,1.98,11.34.26,22.61,1.95,33.52,5.05,5.82,1.78,11.52,4.14,17.55,4.93,7.08.92,14.79-.27,20.97,3.32-7.93-.29-15.86-.56-23.8-1.03-3.61-.04-7.2-.63-10.63-1.76-2.06-.98-4.18-1.82-6.35-2.52-3.84-.92-7.85.29-11.79-.08-3.54-.33-6.82-1.94-10.33-2.6-4.38-.86-8.9-.21-13.37,0-6.71.21-13.31-2.19-20.02-2.19l-12.95-2.68c-2.98-1.27-6.35.08-9.52-.29-2.13-.42-4.19-1.17-6.09-2.22-4.3-1.88-8.73-3.47-13.25-4.76-2.05-.73-4.18-1.22-6.35-1.46-2.11-.16-4.24.14-6.35,0s-8.06-1.51-8.28-4.08c8.17-1.52,18.48.08,26.51,1.68Z"/><path class="cls-10_steak-27" d="M153.28,200.18c16.77-.27,33.6-.54,50.24,1.46,6.35.76,12.69,1.84,18.83.22,1.82-.62,3.68-1.11,5.57-1.46,2.52-.17,5.05.15,7.44.95,6.92,1.94,13.66,4.76,20.81,5.28,4.67.14,9.34-.03,13.99-.49,4.41-.22,8.85-.11,13.28,0l11.74.3c3.71.1,8.17.65,9.73,4.01-22.59-5.27-46.99,6.09-69.12-.86-4.35-1.36-8.55-3.43-13.09-3.79-2.95-.09-5.91.1-8.82.57-8.23.71-16.49.8-24.73.27-5.49-.22-11.11-.46-16.25-2.41-2.02-.9-4.09-1.69-6.2-2.35-4.76-1.14-9.77.4-14.61-.25-1.36-.17-3.08-1.19-2.55-2.46"/><path class="cls-8_steak-27" d="M247.15,176.98c6-.46,11.98-.94,17.99-1.09,8.11-.22,16.21.11,24.32.46l12.69.52c-2.06,2.17-5.47,2.11-8.47,1.98-6.82-.39-13.67-.15-20.45.73-4.92.7-9.77,1.84-14.71,2.47-5.79.64-11.62.91-17.45.81-8.96,0-18.21.71-27.16.1,1.67-4.39,7.81-4.05,11.5-4.28,7.22-.49,14.47-1.11,21.73-1.7Z"/></g><path class="cls-7_steak-27" d="M342.58,242.96c-42.2,30.81-72.31,77.64-118.86,101.38-3.97,2.01-8.22,3.89-12.69,3.65s-8.74-2.73-13.03-4.44c-11.72-4.76-24.86-3.84-37.36-5.79-23.34-3.63-44.26-17.37-60.05-34.9-2.87-3.17-14.01-16.72-6.14-19.47,3.55-1.24,6.35,2.52,8.85,4.12,4.12,2.63,8.76,2.62,13.25,4.17,3.33,1.16,6.58,4.03,6.35,7.54,4.79-.1,9.56.56,14.14,1.95,7.44,2.68,13.04,9.06,20.4,11.93,3.09,1.08,6.28,1.85,9.52,2.28l11.68,1.95c1.04.21,2.11.3,3.17.27,1.32-.18,2.62-.44,3.9-.78,1.93-.2,3.88-.2,5.81,0,11.32.41,22.47-2.9,31.73-9.42,3.44-2.53,6.72-5.28,9.82-8.23l31.08-28.4c10.14-9.36,20.42-18.64,28.35-29.86,3.71-5.22,6.93-10.8,11.11-15.61,6.71-7.69,15.75-13.22,21.77-21.48-14.45,7.93-21.13,24.59-29.92,38.52-7.82,12.35-17.89,23.11-29.7,31.73-3.2,2.05-6.11,4.53-8.65,7.36-1.59,2.11-2.81,4.55-4.46,6.66-5.77,7.39-16.75,9.52-21.83,17.45-.9,1.69-1.91,3.33-3.01,4.9-1.29,1.44-2.83,2.64-4.54,3.55-7.44,4.34-15.71,7.09-24.27,8.08-4.01.71-8.15.24-11.9-1.35-1.59-1.08-3.36-1.87-5.22-2.35-2.02.03-4,.53-5.79,1.46-10.74,3.98-22.59-1.17-32.49-6.92-9.9-5.74-20.32-12.44-31.73-11.64.24,8.93,9.65,14.58,18.15,17.31,10.06,3.2,20.56,4.81,31.11,4.76,5.76,0,11.69-.52,17.13,1.38,3.32,1.17,6.35,3.17,9.6,4.39,10.65,3.86,23.8-.95,33.05,5.57-.65-6.73,6.19-11.42,11.88-15.09,13.55-8.74,25.14-20.2,34.01-33.67,2-3.42,4.37-6.61,7.06-9.52,3.35-3.17,7.6-5.35,11.34-8.11,10.01-7.41,15.86-19.18,24.69-27.89,7.11-6.96,16.02-11.82,23.26-18.66,7.23-6.84,12.87-16.8,10.44-26.45,5.84,7.32,8.53,16.65,7.49,25.96l10.77,4.76c-4.05,5.73-9.76,9.95-15.37,13.99-6.01,4.54-11.76,9.42-17.21,14.61-1.32,1.07-2.45,2.37-3.32,3.84-.78,1.73-1.16,3.61-1.09,5.51-.16,6.55,1.19,13.22-.25,19.59-1.87-1.88-3.13-4.28-3.62-6.89-.04-.55-.2-1.1-.46-1.59-.28-.38-.63-.71-1.03-.95l-4.14-2.92c-1.59,2.47-3.4,5.12-3.55,8.12-.32,6.09,5.97,11.41,4.76,17.37-1.23-.64-2.6-.96-3.98-.94-.4,1.64-.62,3.31-.67,5-1.53-1.32-3.38-2.22-5.36-2.6l-.86,3.73-10.82-9.6-6.95,13.14c-.46.76-.77,1.6-.9,2.47.09,1.41.48,2.79,1.14,4.05,1.43,4.08-.11,8.54-1.59,12.58-1.9-1.77-3.39-3.94-4.36-6.35l-1.59.29-5.73-9.66-2.32,2.24-2.76-2.52"/><path class="cls-23_steak-27 targetColor" d="M322.4,248.23c-11.72,8.15-27.1,8.95-41.25,7.03,1.3,2.89,3.92,4.98,7.03,5.6l-8.3,4.98c0,1.02,1.33,1.41,2.35,1.48l5.49.35c1.49.28,3.04-.08,4.25-1l6.52-4.12-.1,3.32c1.58-.85,3.31-1.39,5.09-1.59-13.87,7.48-28.03,14.35-42.49,20.62,2.37,1.2,5.07,1.59,7.68,1.11-2.05,1.42-3.69,3.36-4.76,5.62,4.52-.48,8.79-2.3,12.26-5.24,2.6,1.14,5.63.62,7.69-1.33l-2.67,3.57c-4.66,8.6-8.77,17.48-12.3,26.61,1.57-2.94,4.04-5.29,7.06-6.7-2.44,6.35-3.52,13.15-3.17,19.94l10.31-10.34.1,4.76c1.78-6.79,2.07-13.89.86-20.8l1.13,2.47c1.59-2.05,1.13-4.97,2.22-7.27.48-.89,1.06-1.72,1.75-2.46l6.76-7.93c-.66,6.32-.92,12.68-.79,19.04l5.01-16.74c.62,3.26,1.57,6.45,2.82,9.52.12-.43.39-.8.76-1.05l2.51,2.38-.52-6.35c.29,1.07.84,2.05,1.59,2.86l.36-10.31,2.08,6.2c.46-6.35-2.7-12.44-2.82-18.8-.07-3.83.96-7.59,2.97-10.85l1.48,11.11,3.28-7.49,2.76,5.65,4.14,3.01c-.51-3.73-1.62-7.35-3.28-10.72-.81-1.34-1.35-2.83-1.59-4.38-.22-3.63,3.28-6.22,6.19-8.39,8.13-6.15,14.35-14.48,17.94-24.02-.59,1.59-3.17,3.3-4.11,4.89-.89,1.9-1.95,3.71-3.17,5.41-3.25,3.91-6.99,7.39-11.12,10.36Z" style="fill: rgb(104, 225, 253);"/><path class="cls-11_steak-27" d="M322.4,248.23c-11.72,8.15-27.1,8.95-41.25,7.03,1.3,2.89,3.92,4.98,7.03,5.6l-8.3,4.98c0,1.02,1.33,1.41,2.35,1.48l5.49.35c1.49.28,3.04-.08,4.25-1l6.52-4.12-.1,3.32c1.58-.85,3.31-1.39,5.09-1.59-13.87,7.48-28.03,14.35-42.49,20.62,2.37,1.2,5.07,1.59,7.68,1.11-2.05,1.42-3.69,3.36-4.76,5.62,4.52-.48,8.79-2.3,12.26-5.24,2.6,1.14,5.63.62,7.69-1.33l-2.67,3.57c-4.66,8.6-8.77,17.48-12.3,26.61,1.57-2.94,4.04-5.29,7.06-6.7-2.44,6.35-3.52,13.15-3.17,19.94l10.31-10.34.1,4.76c1.78-6.79,2.07-13.89.86-20.8l1.13,2.47c1.59-2.05,1.13-4.97,2.22-7.27.48-.89,1.06-1.72,1.75-2.46l6.76-7.93c-.66,6.32-.92,12.68-.79,19.04l5.01-16.74c.62,3.26,1.57,6.45,2.82,9.52.12-.43.39-.8.76-1.05l2.51,2.38-.52-6.35c.29,1.07.84,2.05,1.59,2.86l.36-10.31,2.08,6.2c.46-6.35-2.7-12.44-2.82-18.8-.07-3.83.96-7.59,2.97-10.85l1.48,11.11,3.28-7.49,2.76,5.65,4.14,3.01c-.51-3.73-1.62-7.35-3.28-10.72-.81-1.34-1.35-2.83-1.59-4.38-.22-3.63,3.28-6.22,6.19-8.39,8.13-6.15,14.35-14.48,17.94-24.02-.59,1.59-3.17,3.3-4.11,4.89-.89,1.9-1.95,3.71-3.17,5.41-3.25,3.91-6.99,7.39-11.12,10.36Z"/><path class="cls-22_steak-27" d="M402.56,228.15c0,7.68-15.28,27.81-34.14,27.81s-34.14-20.13-34.14-27.81,15.29,0,34.14,0,34.14-7.74,34.14,0Z"/><ellipse class="cls-22_steak-27" cx="367.83" cy="225.26" rx="34.14" ry="13.91"/><path class="cls-9_steak-27" d="M396.8,225.24c0,4.08-5.08,7.66-12.79,9.79h0c-5.27,1.37-10.69,2.05-16.13,2-11.99,0-22.29-2.97-26.68-7.22h0c-1.37-1.14-2.2-2.79-2.28-4.57,0-6.52,12.98-11.8,28.97-11.8s28.92,5.28,28.92,11.8Z"/><path class="cls-23_steak-27 targetColor" d="M395.61,227.48c.02.36-.08.72-.29,1.02-1.35,1.86-3.24,3.26-5.41,4-1.94.87-3.87,1.73-5.85,2.54h0c-5.27,1.37-10.69,2.05-16.13,2-11.99,0-22.29-2.97-26.68-7.22h0c.33-2.58,1.9-4.83,4.2-6.03,3.84-2.14,8.5-1.92,12.91-1.92,1.29.11,2.58-.12,3.76-.65.87-.48,1.59-1.27,2.36-1.82,2.95-1.95,6.93-.48,10.42-1.09,2.09-.36,4.16-1.51,6.2-.94,2.05.57,3.44,3.03,5.49,4.12,1.35.73,2.95.81,4.36,1.44,1.67.9,3.11,2.16,4.22,3.7.21.24.36.54.43.86Z" style="fill: rgb(104, 225, 253);"/><path class="cls-13_steak-27" d="M386.65,224.23c-.46.68-1.4.75-2.21.87-1.08.23-2.14.54-3.17.9-4.58,1.31-9.49.92-13.8-1.11,1.99,2.72,5.16,4.33,8.54,4.33.68-.06,1.37-.03,2.05.1.68.16,1.19.71,1.3,1.4,0,.78-.68,1.36-1.32,1.81-.9.65-1.85,1.23-2.84,1.73-2.35.97-4.87,1.41-7.41,1.3-2.52,0-5.05-.21-7.57,0-.15.42.02.89.4,1.13.38.22.8.35,1.24.38,2.5.26,5.01.39,7.52.38,2.21.06,4.43-.03,6.63-.25,3.76-.56,7.43-1.62,10.9-3.17,3.26-1.28,6.32-3.03,9.07-5.19.2-.13.35-.34.41-.57,0-.17-.04-.33-.11-.48-.84-1.67-2.14-3.05-3.74-4-1.6-.92-3.29-1.68-5.05-2.27-.6-.22-3.63-1.97-3.87-1.17s3.01,3.9,3.03,3.89Z"/></g></svg>