<svg id="_0433_sandwich" xmlns="http://www.w3.org/2000/svg" xmlns:xlink="http://www.w3.org/1999/xlink" viewBox="0 0 500 500" data-imageid="sandwich-34" imageName="Sandwich" class="illustrations_image" style="width: 188px;"><defs><style>.cls-1_sandwich-34{fill:url(#linear-gradient);}.cls-1_sandwich-34,.cls-2_sandwich-34,.cls-3_sandwich-34,.cls-4_sandwich-34,.cls-5_sandwich-34,.cls-6_sandwich-34,.cls-7_sandwich-34,.cls-8_sandwich-34,.cls-9_sandwich-34,.cls-10_sandwich-34,.cls-11_sandwich-34,.cls-12_sandwich-34,.cls-13_sandwich-34,.cls-14_sandwich-34,.cls-15_sandwich-34,.cls-16_sandwich-34,.cls-17_sandwich-34,.cls-18_sandwich-34,.cls-19_sandwich-34{stroke-width:0px;}.cls-2_sandwich-34{isolation:isolate;opacity:.18;}.cls-2_sandwich-34,.cls-19_sandwich-34{fill:#68e1fd;}.cls-3_sandwich-34{fill:url(#linear-gradient-11-sandwich-34);}.cls-4_sandwich-34{fill:url(#linear-gradient-12-sandwich-34);}.cls-5_sandwich-34{fill:url(#linear-gradient-13-sandwich-34);}.cls-6_sandwich-34{fill:url(#linear-gradient-10-sandwich-34);}.cls-7_sandwich-34{fill:url(#linear-gradient-17-sandwich-34);}.cls-8_sandwich-34{fill:url(#linear-gradient-16-sandwich-34);}.cls-9_sandwich-34{fill:url(#linear-gradient-15-sandwich-34);}.cls-10_sandwich-34{fill:url(#linear-gradient-14-sandwich-34);}.cls-11_sandwich-34{fill:url(#linear-gradient-4-sandwich-34);}.cls-12_sandwich-34{fill:url(#linear-gradient-2-sandwich-34);}.cls-13_sandwich-34{fill:url(#linear-gradient-3-sandwich-34);}.cls-14_sandwich-34{fill:url(#linear-gradient-8-sandwich-34);}.cls-15_sandwich-34{fill:url(#linear-gradient-9-sandwich-34);}.cls-16_sandwich-34{fill:url(#linear-gradient-7-sandwich-34);}.cls-17_sandwich-34{fill:url(#linear-gradient-5-sandwich-34);}.cls-18_sandwich-34{fill:url(#linear-gradient-6-sandwich-34);}</style><linearGradient id="linear-gradient-sandwich-34" x1="733.01" y1="3100.72" x2="736.15" y2="2930.73" gradientTransform="translate(-502.43 3327.2) scale(1 -1)" gradientUnits="userSpaceOnUse"><stop offset="0" stop-color="#231f20"/><stop offset=".13" stop-color="#231f20" stop-opacity=".69"/><stop offset="1" stop-color="#231f20" stop-opacity="0"/></linearGradient><linearGradient id="linear-gradient-2-sandwich-34" x1="745.21" y1="3111.21" x2="750.81" y2="2906.23" xlink:href="#linear-gradient-sandwich-34"/><linearGradient id="linear-gradient-3-sandwich-34" x1="599.71" y1="3034.55" x2="906.57" y2="3034.55" xlink:href="#linear-gradient-sandwich-34"/><linearGradient id="linear-gradient-4-sandwich-34" x1="734.57" y1="2970.96" x2="737.03" y2="3029.02" gradientTransform="translate(-502.43 3327.2) scale(1 -1)" gradientUnits="userSpaceOnUse"><stop offset="0" stop-color="#fff"/><stop offset=".13" stop-color="#fff" stop-opacity=".69"/><stop offset="1" stop-color="#fff" stop-opacity="0"/></linearGradient><linearGradient id="linear-gradient-5-sandwich-34" x1="676.87" y1="3003.07" x2="769.3" y2="3003.07" xlink:href="#linear-gradient-sandwich-34"/><linearGradient id="linear-gradient-6-sandwich-34" x1="643.72" y1="3039.8" x2="604.89" y2="3005.53" xlink:href="#linear-gradient-sandwich-34"/><linearGradient id="linear-gradient-7-sandwich-34" x1="832.01" y1="3015.13" x2="846" y2="2925.59" xlink:href="#linear-gradient-sandwich-34"/><linearGradient id="linear-gradient-8-sandwich-34" x1="773.51" y1="3014.56" x2="894.21" y2="3014.56" xlink:href="#linear-gradient-sandwich-34"/><linearGradient id="linear-gradient-9-sandwich-34" x1="833.15" y1="3022.22" x2="871.25" y2="3022.22" xlink:href="#linear-gradient-sandwich-34"/><linearGradient id="linear-gradient-10-sandwich-34" x1="788.98" y1="3013.79" x2="834.36" y2="3013.79" xlink:href="#linear-gradient-sandwich-34"/><linearGradient id="linear-gradient-11-sandwich-34" x1="583.82" y1="3036.81" x2="679.41" y2="3036.81" xlink:href="#linear-gradient-sandwich-34"/><linearGradient id="linear-gradient-12-sandwich-34" x1="603.72" y1="3029.21" x2="653.75" y2="3029.21" xlink:href="#linear-gradient-sandwich-34"/><linearGradient id="linear-gradient-13-sandwich-34" x1="596.09" y1="3045.76" x2="630.18" y2="3045.76" xlink:href="#linear-gradient-sandwich-34"/><linearGradient id="linear-gradient-14-sandwich-34" x1="566.52" y1="3075.2" x2="897.62" y2="3075.2" xlink:href="#linear-gradient-sandwich-34"/><linearGradient id="linear-gradient-15-sandwich-34" x1="597.01" y1="3031.54" x2="904.88" y2="3031.54" xlink:href="#linear-gradient-4-sandwich-34"/><linearGradient id="linear-gradient-16-sandwich-34" x1="604.83" y1="3069.92" x2="901.34" y2="3069.92" xlink:href="#linear-gradient-sandwich-34"/><linearGradient id="linear-gradient-17-sandwich-34" x1="617.75" y1="3094.72" x2="884.72" y2="3094.72" xlink:href="#linear-gradient-4-sandwich-34"/></defs><g id="background_sandwich-34"><path class="cls-2_sandwich-34 targetColor" d="M169.57,125.56c-26.56,4.12-53.42,9.33-77.27,21.75-23.85,12.42-44.66,33.09-51.34,59.13-4.48,17.39-2.48,35.83-6.03,53.42-2.7,13.58-8.57,26.31-12.07,39.75-14.41,55,20.52,119.84,75.88,133.05,27.53,6.55,56.26,1.09,84.48-.58,38.01-2.26,76.1,2.4,114.19,2.34,38.09-.06,77.52-5.35,109.87-25.45,32.35-20.1,55.9-57.82,50.21-95.47-5.33-35.02-33.42-62.11-45.27-95.51-6.39-17.98-8.05-37.79-17.68-54.26-40.67-69.62-162.14-47.9-224.96-38.16Z" style="fill: rgb(104, 225, 253);"/><path class="cls-1_sandwich-34" d="M54.28,337.6c-3.32,1.24-7.3,3.55-6.76,7.04.34,2.06,2.2,3.48,3.99,4.53,20.8,12.24,48.7,4.61,69.98,15.95,9.08,4.84,16.15,12.7,23.74,19.57,7.59,6.87,16.81,13.09,27.08,13.38,8.48.25,16.49-3.59,24.71-5.71,9.94-2.55,20.25-2.62,30.46-3.34,16.9-1.18,33.54-4.19,50.26-7.18l86.82-15.62c15.75-2.83,31.62-5.7,46.61-11.28,2.41-.89,4.97-2.01,6.21-4.26,2.56-4.65-2.14-9.94-6.66-12.72-13.89-8.52-30.42-11.81-46.71-12.42-16.29-.61-32.54,1.24-48.8,2.22-70.72,4.43-141.38-6-212.12-4.86-16.94.22-33.09,8.8-48.82,14.7Z"/></g><g id="sandwich_sandwich-34"><path class="cls-19_sandwich-34 targetColor" d="M98.58,300.53c-1.63,1.34-3.11,2.87-4.41,4.53-3.91,5.66-1.93,13.84,2.7,18.96s11.18,7.89,17.58,10.51l37.13,15.28c.86.28,1.65.75,2.3,1.38.78,1.14,1.18,2.5,1.14,3.88,1.66,15.5,16.21,27.07,31.4,30.55s31.06.72,46.44-1.69c46.88-7.3,95.32-11.37,138.24-31.6,8.01-3.73,15.96-8.26,21.52-15.14s8.27-16.67,4.77-24.85c-3.37-7.8-11.42-12.42-19.04-16.15-13.58-6.67-27.54-12.56-41.49-18.44-19.16-8.07-38.51-16.22-59.03-19.74-32.01-5.5-64.76.55-97.25.96-11.69.15-23.45-.43-35.03,1.24-9.25,1.3-24.08,4.43-29.74,12.78-6.35,9.37-8.25,19.29-17.22,27.54Z" style="fill: rgb(104, 225, 253);"/><path class="cls-12_sandwich-34" d="M98.58,300.53c-1.63,1.34-3.11,2.87-4.41,4.53-3.91,5.66-1.93,13.84,2.7,18.96s11.18,7.89,17.58,10.51l37.13,15.28c.86.28,1.65.75,2.3,1.38.78,1.14,1.18,2.5,1.14,3.88,1.66,15.5,16.21,27.07,31.4,30.55s31.06.72,46.44-1.69c46.88-7.3,95.32-11.37,138.24-31.6,8.01-3.73,15.96-8.26,21.52-15.14s8.27-16.67,4.77-24.85c-3.37-7.8-11.42-12.42-19.04-16.15-13.58-6.67-27.54-12.56-41.49-18.44-19.16-8.07-38.51-16.22-59.03-19.74-32.01-5.5-64.76.55-97.25.96-11.69.15-23.45-.43-35.03,1.24-9.25,1.3-24.08,4.43-29.74,12.78-6.35,9.37-8.25,19.29-17.22,27.54Z"/><path class="cls-13_sandwich-34" d="M103.77,271.69c-1.63,1.34-3.1,2.86-4.4,4.53-3.93,5.66-1.93,13.84,2.68,18.96s11.18,7.89,17.58,10.51l37.13,15.28c.86.28,1.65.76,2.3,1.39.78,1.14,1.18,2.5,1.16,3.88,1.65,15.5,16.15,27.06,31.4,30.55s31.06.71,46.42-1.69c46.87-7.32,95.32-11.42,138.25-31.62,8-3.73,15.95-8.25,21.5-15.13,5.55-6.88,8.27-16.68,4.77-24.85-3.37-7.8-11.42-12.42-19.04-16.15-13.58-6.68-27.54-12.56-41.49-18.45-19.16-8.07-38.51-16.21-59.02-19.74-32.03-5.5-64.77.55-97.26.97-11.69.15-23.45-.43-35.03,1.24-9.25,1.24-24.08,4.43-29.73,12.77-6.27,9.37-8.24,19.31-17.23,27.54Z"/><path class="cls-19_sandwich-34 targetColor" d="M107.83,265.15c-1.63,1.34-3.11,2.86-4.41,4.53-3.93,5.66-1.93,13.84,2.68,18.96,4.61,5.12,11.18,7.89,17.58,10.51l37.14,15.28c.86.29,1.65.76,2.3,1.39.77,1.14,1.17,2.5,1.14,3.88,1.65,15.5,16.21,27.06,31.4,30.55s31.06.71,46.42-1.69c46.9-7.32,95.32-11.38,138.25-31.62,8-3.73,15.96-8.25,21.52-15.13,5.55-6.88,8.26-16.68,4.76-24.85-3.37-7.8-11.42-12.36-19.04-16.15-13.58-6.68-27.54-12.56-41.48-18.45-19.17-8.07-38.51-16.21-59.03-19.74-32.03-5.5-64.77.55-97.26.97-11.69.15-23.44-.43-35.02,1.24-9.27,1.3-24.09,4.42-29.74,12.77-6.34,9.37-8.24,19.31-17.22,27.54Z" style="fill: rgb(104, 225, 253);"/><path class="cls-19_sandwich-34 targetColor" d="M236.55,358.5c3.55,3.64,6.98,7.54,11.42,10.04s10.21,3.3,14.5.57c2.65-1.69,4.36-4.45,5.95-7.16,5.94-10.16,11.47-21.12,21.06-27.98,1.91-1.17,3.69-2.53,5.32-4.06,4.97-5.39,3.39-14.62-1.61-20.04-5.01-5.42-12.35-7.9-19.43-9.94-16.36-4.68-33.23-8.03-50.24-8-10.07-.04-20.11,1.3-29.81,3.99-6.34,1.8-21.12,5.25-23.45,12.51-2.48,7.76,7.55,13.78,13.28,16.15,9.07,3.83,17.93,7.45,26.36,12.61,9.73,5.97,18.69,13.13,26.67,21.31Z" style="fill: rgb(104, 225, 253);"/><path class="cls-11_sandwich-34" d="M236.55,358.5c3.55,3.64,6.98,7.54,11.42,10.04s10.21,3.3,14.5.57c2.65-1.69,4.36-4.45,5.95-7.16,5.94-10.16,11.47-21.12,21.06-27.98,1.91-1.17,3.69-2.53,5.32-4.06,4.97-5.39,3.39-14.62-1.61-20.04-5.01-5.42-12.35-7.9-19.43-9.94-16.36-4.68-33.23-8.03-50.24-8-10.07-.04-20.11,1.3-29.81,3.99-6.34,1.8-21.12,5.25-23.45,12.51-2.48,7.76,7.55,13.78,13.28,16.15,9.07,3.83,17.93,7.45,26.36,12.61,9.73,5.97,18.69,13.13,26.67,21.31Z"/><path class="cls-17_sandwich-34" d="M245.17,311.27c-.83-.32-1.73-.43-2.62-.32-1.13.32-2.08,1.11-2.61,2.16-1.64,2.93-1.03,6.53-.72,9.94.31,3.4,0,7.23-2.63,9.25-1.16.8-2.52,1.28-3.93,1.37-5.32.46-10.41-2.29-12.93-6.99-1.33-2.56-1.79-5.52-3.33-7.95-.31-.5-.78-1.02-1.37-.98-.46.1-.86.39-1.08.81-1.59,2.31-1.49,5.35-1.32,8.16l.68,11.54c-.01.98.19,1.96.58,2.86.83,1.2,1.98,2.15,3.32,2.75,3.55,2.16,6.46,5.23,8.41,8.89-6.69,1.48-13.68.13-19.34-3.73.41,1.39-.94,2.8-2.37,3.02-1.46.07-2.91-.27-4.17-.99-4.51-2.01-9.21-4.17-12.2-8.1-1.08-1.51-2.01-3.12-2.78-4.81l-9.64-19.31c-.61-.9-.82-2.02-.58-3.08.45-1.13,1.78-1.58,2.96-1.88,11.35-2.88,22.97-4.97,33.96-8.94,7.34-2.68,14.36-6.21,21.89-8.34,7.53-2.12,15.88-2.6,22.93.77,5.49,2.61,13.58,11.04,9.48,17.65-4.29,6.89-15.22-2.05-20.58-3.75Z"/><path class="cls-19_sandwich-34 targetColor" d="M111.15,317.6c3.73.63,7.51.91,11.29.84l42.92.57c4.26,0,9.52-.52,11.11-4.47.82-2.61.09-5.47-1.89-7.37-1.97-1.83-4.28-3.26-6.8-4.2-18.63-8.29-38.26-14.91-58.49-18.11-6.88-1.08-23.27-9.07-27.89-3.53-2.32,2.78-.53,16.15,4.67,21.12,7.06,6.62,15.34,13.16,25.07,15.14Z" style="fill: rgb(104, 225, 253);"/><path class="cls-18_sandwich-34" d="M111.15,317.6c3.73.63,7.51.91,11.29.84l42.92.57c4.26,0,9.52-.52,11.11-4.47.82-2.61.09-5.47-1.89-7.37-1.97-1.83-4.28-3.26-6.8-4.2-18.63-8.29-38.26-14.91-58.49-18.11-6.88-1.08-23.27-9.07-27.89-3.53-2.32,2.78-.53,16.15,4.67,21.12,7.06,6.62,15.34,13.16,25.07,15.14Z"/><path class="cls-19_sandwich-34 targetColor" d="M289.52,337.66c8.81,3.8,18.47,5.16,28.04,5.91,19.34,1.55,39.34.73,57.28-6.7,7.45-3.11,15.32-8.5,16.15-16.57,1.01-9.86-8.94-17.29-18.34-20.5-17.21-5.88-36.15-4.97-53.79-.57-14.65,3.65-28.82,9.47-42.44,15.91-7.91,3.73-7.69,5.73-1.54,12.42,4.12,4.35,9.1,7.79,14.63,10.09Z" style="fill: rgb(104, 225, 253);"/><path class="cls-16_sandwich-34" d="M289.52,337.66c8.81,3.8,18.47,5.16,28.04,5.91,19.34,1.55,39.34.73,57.28-6.7,7.45-3.11,15.32-8.5,16.15-16.57,1.01-9.86-8.94-17.29-18.34-20.5-17.21-5.88-36.15-4.97-53.79-.57-14.65,3.65-28.82,9.47-42.44,15.91-7.91,3.73-7.69,5.73-1.54,12.42,4.12,4.35,9.1,7.79,14.63,10.09Z"/><path class="cls-19_sandwich-34 targetColor" d="M290.25,330.34c8.81,3.8,18.46,5.16,28.03,5.93,19.34,1.54,39.36.72,57.28-6.71,7.45-3.09,15.32-8.5,16.15-16.56,1.01-9.94-8.96-17.3-18.34-20.51-17.22-5.86-36.15-4.97-53.8-.56-14.63,3.64-28.82,9.45-42.44,15.91-7.91,3.73-7.68,5.73-1.54,12.42,4.13,4.34,9.12,7.77,14.66,10.07Z" style="fill: rgb(104, 225, 253);"/><path class="cls-19_sandwich-34 targetColor" d="M86.9,273.77c-2.73,1.71-5.28,4.31-5.49,7.54s1.84,5.9,3.86,8.29c3.01,3.55,6.23,6.91,9.65,10.07,4,3.73,8.36,7.18,13.45,9.11,4.67,1.76,9.73,2.15,14.7,2.48,16.78,1.17,33.9,2.06,50.19-2.15,1.22-.19,2.33-.79,3.16-1.7.71-1.33.75-2.92.11-4.29-2.05-6.06-7.08-10.61-12.29-14.34-12.3-8.77-26.72-14.62-41.27-18.46-10.94-2.87-26.35-2.67-36.08,3.44Z" style="fill: rgb(104, 225, 253);"/><path class="cls-14_sandwich-34" d="M290.25,330.34c8.81,3.8,18.46,5.16,28.03,5.93,19.34,1.54,39.36.72,57.28-6.71,7.45-3.09,15.32-8.5,16.15-16.56,1.01-9.94-8.96-17.3-18.34-20.51-17.22-5.86-36.15-4.97-53.8-.56-14.63,3.64-28.82,9.45-42.44,15.91-7.91,3.73-7.68,5.73-1.54,12.42,4.13,4.34,9.12,7.77,14.66,10.07Z"/><path class="cls-15_sandwich-34" d="M356.97,319.78c5.66-3.08,11.4-7.81,11.83-14.25.31-4.73-2.48-9.28-6.36-12.05-3.88-2.77-8.57-4.04-13.26-4.76-8.7-1.32-18.63,1.75-18.46,12.3.16,6.61,8.7,11.79,12.78,16.15,4.24,4.52,7.73,5.71,13.47,2.61Z"/><path class="cls-6_sandwich-34" d="M312.68,305.45c-3.12-2.84-7.01-4.7-11.18-5.37-2.67-.29-5.36-.02-7.93.77-1.78.44-3.41,1.32-4.75,2.57-1.57,1.75-2.39,4.05-2.27,6.4.09,6.52,5.34,12.07,11.38,14.55,6.04,2.47,12.76,2.48,19.28,2.48h12.06c1.07,0,2.48-.25,2.65-1.24,0-.71-.32-1.37-.86-1.83-3.02-3.25-6.4-5.96-9.65-8.93s-5.44-6.61-8.73-9.4Z"/><path class="cls-3_sandwich-34" d="M86.9,273.77c-2.73,1.71-5.28,4.31-5.49,7.54s1.84,5.9,3.86,8.29c3.01,3.55,6.23,6.91,9.65,10.07,4,3.73,8.36,7.18,13.45,9.11,4.67,1.76,9.73,2.15,14.7,2.48,16.78,1.17,33.9,2.06,50.19-2.15,1.22-.19,2.33-.79,3.16-1.7.71-1.33.75-2.92.11-4.29-2.05-6.06-7.08-10.61-12.29-14.34-12.3-8.77-26.72-14.62-41.27-18.46-10.94-2.87-26.35-2.67-36.08,3.44Z"/><path class="cls-4_sandwich-34" d="M102.3,290.65c-1.58,1.14-1.06,3.6-.15,5.32,3.73,7.07,11.29,11.54,19.13,13.11,7.84,1.57,15.96.51,23.76-1.24,2.48-.55,5.32-1.52,6.1-3.93.32-1.25.18-2.57-.39-3.73-.92-1.87-2.19-3.56-3.73-4.97-1.96-1.99-3.99-3.89-6.09-5.73-1.06-1.03-2.29-1.87-3.64-2.48-5.49-2.17-12.42.36-17.85,1.57-2.16.47-4.35.8-6.56.98-2.83.24-8.21-.61-10.6,1.11Z"/><path class="cls-5_sandwich-34" d="M102.91,276.2c-2.6.86-5.29,1.78-7.22,3.73s-2.78,5.22-1.24,7.45c1.8,2.48,5.49,2.41,8.55,2.01,8.27-1.07,16.5-2.48,24.71-3.85-1.68-3.62-4.86-6.21-7.95-8.8-2.25-1.84-5.19-3.85-8.26-3.42-2.82.36-5.84,2.02-8.58,2.87Z"/><path class="cls-19_sandwich-34 targetColor" d="M170.39,179.96c-3.89-2.94-9.94-3.53-13.39,0-2.11,2.17-2.83,5.45-4.97,7.55-2.99,2.89-7.91,2.72-11.73,1.03-3.81-1.69-6.92-4.6-10.42-6.84-5.99-3.84-13.02-5.75-20.12-5.47-3.81.16-8.29,1.55-9.37,5.22-1.44,4.97,4.4,9.94,2.57,14.8-1.24,3.21-5.27,4.31-8.7,3.99-3.43-.32-6.73-1.61-10.15-1.39-2.21,1.47-1.69,4.88-.37,7.18s3.24,4.52,3.09,7.17c-.21,3.52-4.02,5.69-7.45,6.21-3.43.52-7.21.26-10.36,1.81-5.55,2.76-6.7,11.54-2.02,15.63,6.87,6,17.3-.2,26.44-.29,4.22,0,8.7,1.6,10.94,5.19s1.12,9.19-2.81,10.76c7.91,4.49,11.78,13.75,9.42,22.53-.94,3.16-2.71,6.21-2.27,9.52.48,2.24,1.47,4.33,2.91,6.11,2.1,3.09,4.87,6.55,8.61,6.4s6.11-3.57,8.81-6.03,7.74-3.73,9.43-.46c2.07,3.98-4.05,8.91-1.81,12.78,1.57,2.71,5.52,2.12,8.62,1.71,10.08-1.19,19.98,3.33,25.68,11.73,8.11-9.42,20.36-14.22,32.71-12.82,1.95.13,3.84.76,5.48,1.84,1.89,1.44,2.86,3.73,3.9,5.86,2.36,4.79,5.5,9.16,9.29,12.92,1.78,1.76,4.05,3.49,6.53,3.12,2.8-.41,4.52-3.34,4.97-6.12s.19-5.68.91-8.41c1.91-7.23,12.06-10.67,17.98-6.1,2.19,1.69,3.73,4.1,5.38,6.21,4.24,5.37,10.44,9.53,17.26,9.94s14.04-3.8,15.86-10.39c.6-2.14.63-4.42,1.42-6.51,2.98-7.9,14.32-8.2,22.09-4.88,7.76,3.32,15.29,8.91,23.69,7.99,1.67-.05,3.26-.75,4.43-1.95,1.24-1.49,1.24-3.6,1.63-5.52,2.32-12.03,18.46-15.86,24.21-26.67,3.67-7.32,2.01-16.19-4.06-21.69,8.16-13.79,26.83-20.82,30.25-36.46.52-1.74.4-3.61-.36-5.25-2.48-4.31-9.04-1.83-13.04,1.09l-11.28,8.24c1.47-5.01,2.64-10.1,3.52-15.24.3-1.05.23-2.18-.21-3.18-1.12-1.94-4.12-1.34-5.94,0s-3.5,3.22-5.75,3.22c.81-4.73,1.57-9.83-.48-14.17-2.05-4.35-8.07-7.07-11.8-4-4.17,3.45-2.4,11.18-6.76,14.42-3.63,2.71-8.81.35-12.32-2.48s-7.32-6.39-11.81-5.9c-1.99,6.12-4.41,12.82-10.04,15.96-4.8,2.7-10.66,2.07-16.15,1.86-29.39-1.11-58.61,11.69-87.66,6.97-4.84-.78-9.83-2.17-13.48-5.48-9.73-8.77-9.88-24.9-20.91-33.26Z" style="fill: rgb(104, 225, 253);"/><path class="cls-10_sandwich-34" d="M170.39,179.96c-3.89-2.94-9.94-3.53-13.39,0-2.11,2.17-2.83,5.45-4.97,7.55-2.99,2.89-7.91,2.72-11.73,1.03-3.81-1.69-6.92-4.6-10.42-6.84-5.99-3.84-13.02-5.75-20.12-5.47-3.81.16-8.29,1.55-9.37,5.22-1.44,4.97,4.4,9.94,2.57,14.8-1.24,3.21-5.27,4.31-8.7,3.99-3.43-.32-6.73-1.61-10.15-1.39-2.21,1.47-1.69,4.88-.37,7.18s3.24,4.52,3.09,7.17c-.21,3.52-4.02,5.69-7.45,6.21-3.43.52-7.21.26-10.36,1.81-5.55,2.76-6.7,11.54-2.02,15.63,6.87,6,17.3-.2,26.44-.29,4.22,0,8.7,1.6,10.94,5.19s1.12,9.19-2.81,10.76c7.91,4.49,11.78,13.75,9.42,22.53-.94,3.16-2.71,6.21-2.27,9.52.48,2.24,1.47,4.33,2.91,6.11,2.1,3.09,4.87,6.55,8.61,6.4s6.11-3.57,8.81-6.03,7.74-3.73,9.43-.46c2.07,3.98-4.05,8.91-1.81,12.78,1.57,2.71,5.52,2.12,8.62,1.71,10.08-1.19,19.98,3.33,25.68,11.73,8.11-9.42,20.36-14.22,32.71-12.82,1.95.13,3.84.76,5.48,1.84,1.89,1.44,2.86,3.73,3.9,5.86,2.36,4.79,5.5,9.16,9.29,12.92,1.78,1.76,4.05,3.49,6.53,3.12,2.8-.41,4.52-3.34,4.97-6.12s.19-5.68.91-8.41c1.91-7.23,12.06-10.67,17.98-6.1,2.19,1.69,3.73,4.1,5.38,6.21,4.24,5.37,10.44,9.53,17.26,9.94s14.04-3.8,15.86-10.39c.6-2.14.63-4.42,1.42-6.51,2.98-7.9,14.32-8.2,22.09-4.88,7.76,3.32,15.29,8.91,23.69,7.99,1.67-.05,3.26-.75,4.43-1.95,1.24-1.49,1.24-3.6,1.63-5.52,2.32-12.03,18.46-15.86,24.21-26.67,3.67-7.32,2.01-16.19-4.06-21.69,8.16-13.79,26.83-20.82,30.25-36.46.52-1.74.4-3.61-.36-5.25-2.48-4.31-9.04-1.83-13.04,1.09l-11.28,8.24c1.47-5.01,2.64-10.1,3.52-15.24.3-1.05.23-2.18-.21-3.18-1.12-1.94-4.12-1.34-5.94,0s-3.5,3.22-5.75,3.22c.81-4.73,1.57-9.83-.48-14.17-2.05-4.35-8.07-7.07-11.8-4-4.17,3.45-2.4,11.18-6.76,14.42-3.63,2.71-8.81.35-12.32-2.48s-7.32-6.39-11.81-5.9c-1.99,6.12-4.41,12.82-10.04,15.96-4.8,2.7-10.66,2.07-16.15,1.86-29.39-1.11-58.61,11.69-87.66,6.97-4.84-.78-9.83-2.17-13.48-5.48-9.73-8.77-9.88-24.9-20.91-33.26Z"/><path class="cls-19_sandwich-34 targetColor" d="M119.32,242.31c-6.86,4.19-14.08,7.77-21.57,10.68-1.12.31-2.12.96-2.84,1.88-.73,1.62-.21,3.54,1.24,4.57,1.46.94,3.1,1.56,4.82,1.81,9.02,2.1,17.39,6.21,25.78,10.17s17.23,8.41,23.01,15.83c10.99,14.12,27.04,24.22,35.36,40.08,4.04,7.69,7.06,16.45,13.99,21.68,4.97-7.45,6.21-16.81,10.52-24.65,7.55-13.67,23.29-20.36,38.34-24.41,47.57-12.78,97.82-7.99,146.94-4.26,3.24.25,7.83-.75,7.54-3.99-.14-.85-.47-1.65-.98-2.34-9.08-14.35-24.71-23.54-41-28.42-16.29-4.88-33.4-5.9-50.34-7.23-62.08-4.88-128.51-10.51-190.8-11.4Z" style="fill: rgb(104, 225, 253);"/><path class="cls-9_sandwich-34" d="M119.32,242.31c-6.86,4.19-14.08,7.77-21.57,10.68-1.12.31-2.12.96-2.84,1.88-.73,1.62-.21,3.54,1.24,4.57,1.46.94,3.1,1.56,4.82,1.81,9.02,2.1,17.39,6.21,25.78,10.17s17.23,8.41,23.01,15.83c10.99,14.12,27.04,24.22,35.36,40.08,4.04,7.69,7.06,16.45,13.99,21.68,4.97-7.45,6.21-16.81,10.52-24.65,7.55-13.67,23.29-20.36,38.34-24.41,47.57-12.78,97.82-7.99,146.94-4.26,3.24.25,7.83-.75,7.54-3.99-.14-.85-.47-1.65-.98-2.34-9.08-14.35-24.71-23.54-41-28.42-16.29-4.88-33.4-5.9-50.34-7.23-62.08-4.88-128.51-10.51-190.8-11.4Z"/><path class="cls-19_sandwich-34 targetColor" d="M108.09,208.13c-2.31.27-4.26,1.87-4.97,4.09-.64,2.17-.86,4.44-.65,6.7l.31,9.73c-.08,1.81.24,3.61.93,5.28,1.32,2.65,4.26,4,6.98,5.17,16.87,7.24,33.61,14.75,50.23,22.55,6.21,2.94,8.06,15.33,11.18,21.12,4.15,7.9,9.84,15.24,17.96,19.34,4.52,2.13,9.35,3.51,14.31,4.11,11.58,1.66,23.36,1.08,34.72-1.7,10.36-2.48,19.29-8.1,29.74-9.59,26.09-3.73,51.83-9.64,77.95-13.27,13.89-1.93,27.98-1.99,41.98-3.04,2.01.02,3.98-.51,5.71-1.52,1.44-1.16,2.5-2.73,3.02-4.51,3.23-9.02.37-19.06-3.6-27.75-.6-1.71-1.73-3.19-3.22-4.22-1.34-.59-2.81-.84-4.27-.72-11.79.09-23.58-.6-35.28-2.09-18.71-2.6-36.83-8.26-55.21-12.67-60.96-14.6-125.18-19.72-187.83-16.99Z" style="fill: rgb(104, 225, 253);"/><path class="cls-8_sandwich-34" d="M108.09,208.13c-2.31.27-4.26,1.87-4.97,4.09-.64,2.17-.86,4.44-.65,6.7l.31,9.73c-.08,1.81.24,3.61.93,5.28,1.32,2.65,4.26,4,6.98,5.17,16.87,7.24,33.61,14.75,50.23,22.55,6.21,2.94,8.06,15.33,11.18,21.12,4.15,7.9,9.84,15.24,17.96,19.34,4.52,2.13,9.35,3.51,14.31,4.11,11.58,1.66,23.36,1.08,34.72-1.7,10.36-2.48,19.29-8.1,29.74-9.59,26.09-3.73,51.83-9.64,77.95-13.27,13.89-1.93,27.98-1.99,41.98-3.04,2.01.02,3.98-.51,5.71-1.52,1.44-1.16,2.5-2.73,3.02-4.51,3.23-9.02.37-19.06-3.6-27.75-.6-1.71-1.73-3.19-3.22-4.22-1.34-.59-2.81-.84-4.27-.72-11.79.09-23.58-.6-35.28-2.09-18.71-2.6-36.83-8.26-55.21-12.67-60.96-14.6-125.18-19.72-187.83-16.99Z"/><path class="cls-19_sandwich-34 targetColor" d="M176.84,250.51c1.57.64,2.95,1.69,3.99,3.04.75,1.52,1.14,3.19,1.13,4.88.72,7.98,3.84,16,9.94,21.21,6.34,5.42,15.04,7.14,23.37,7.45,13.26.4,26.36-2.48,39.31-5.29l107.56-23.6c9.45-2.07,19.55-4.5,26.09-11.63,1.73-1.62,2.75-3.85,2.87-6.21-.12-2.94-2.48-5.28-4.89-6.97-3.79-2.69-8.06-4.64-12.58-5.74-4.17-1.02-8.5-1.24-12.73-1.98-28.77-4.62-50.93-26.7-74.64-43.67-1.93-1.53-4.09-2.73-6.41-3.55-3.28-.99-6.8-.51-10.19,0-32.97,4.88-65.81,10.51-98.53,16.88-16.56,3.22-33.07,6.63-49.52,10.21-4.41.96-17.14.88-14.71,7.34,2,5.3,14.25,8.88,18.91,11.29l51.05,26.32Z" style="fill: rgb(104, 225, 253);"/><path class="cls-7_sandwich-34" d="M181.26,249.43c1.47.61,2.76,1.6,3.73,2.87.71,1.42,1.07,2.99,1.07,4.57.67,7.45,3.6,15.02,9.3,19.88,5.95,5.08,14.12,6.71,21.94,6.94,12.42.37,24.73-2.31,36.88-4.97l100.92-22.13c8.88-1.95,18.35-4.22,24.49-10.92,1.62-1.51,2.59-3.6,2.7-5.81-.1-2.76-2.32-4.97-4.58-6.55-3.57-2.52-7.57-4.34-11.81-5.38-3.91-.96-7.96-1.24-11.95-1.85-26.99-4.34-47.82-25.04-70.04-41-1.8-1.44-3.83-2.56-6-3.33-3.07-.93-6.37-.47-9.55,0-30.93,4.58-61.75,9.86-92.46,15.84-15.53,3.02-31.02,6.22-46.46,9.59-4.14.89-16.15.82-13.8,6.88,1.88,4.97,13.37,8.34,17.74,10.6l47.9,24.76Z"/></g></svg>