<svg version="1.1" id="Layer_1" xmlns="http://www.w3.org/2000/svg" xmlns:xlink="http://www.w3.org/1999/xlink" x="0px" y="0px" viewBox="0 0 500 500" style="width: 188px;" xml:space="preserve" data-imageid="cake-28" imageName="Cake" class="illustrations_image">
<style type="text/css">
	.st0_cake-28{fill:#231F20;}
	.st1_cake-28{fill:#FFFFFF;}
	.st2_cake-28{fill:#D1D3D4;}
	.st3_cake-28{fill:#68E1FD;}
</style>
<g id="Plate_cake-28">
	<ellipse class="st0_cake-28" cx="250" cy="342.1" rx="170.7" ry="76.8"/>
	<path class="st0_cake-28" d="M250,419.7c-94.5,0-171.4-34.8-171.4-77.6s76.9-77.6,171.4-77.6s171.4,34.8,171.4,77.6S344.5,419.7,250,419.7z&#10;&#9;&#9; M250,266c-93.7,0-169.9,34.1-169.9,76.1s76.2,76.1,169.9,76.1s169.9-34.1,169.9-76.1S343.7,266,250,266z"/>
	<ellipse class="st1_cake-28" cx="250" cy="333.1" rx="170.7" ry="76.8"/>
	<path class="st0_cake-28" d="M250,410.6c-94.5,0-171.4-34.8-171.4-77.5s76.9-77.5,171.4-77.5s171.4,34.8,171.4,77.5S344.5,410.6,250,410.6z&#10;&#9;&#9; M250,256.9c-93.7,0-170,34.1-170,76.1s76.3,76.1,170,76.1s170-34.2,170-76.1S343.7,256.9,250,256.9z"/>
	<path class="st2_cake-28" d="M250,398.8c-87.9,0-159.4-29.5-159.4-65.7s71.5-65.7,159.4-65.7s159.4,29.5,159.4,65.7S337.9,398.8,250,398.8z&#10;&#9;&#9; M250,268.8c-87.1,0-158,28.8-158,64.3s70.9,64.3,158,64.3s158-28.8,158-64.3S337.1,268.8,250,268.8z"/>
</g>
<g id="Cake_cake-28">
	<path class="st1_cake-28" d="M368.1,268.4v96.1c0,6.9-2.5,8.6-4.8,8.6c-6.6,0-224.8-65.3-230-67.5c-3.2-1.5-5.7-4.1-7-7.5V207&#10;&#9;&#9;c0,0,0.4-10.1,6.1-10.5C138.1,196.1,368.1,268.4,368.1,268.4z"/>
	<path class="st0_cake-28" d="M363.3,373.8c-3.9,0-74.2-20.6-115.7-33c-55.2-16.3-111.9-33.5-114.6-34.6c-3.4-1.5-6.1-4.4-7.4-7.9&#10;&#9;&#9;c0-0.1,0-0.1,0-0.2V207c0-0.5,0.5-10.7,6.8-11.2h0.1c7.1,0,226.6,68.9,236,71.9c0.3,0.1,0.5,0.4,0.5,0.7v96.1&#10;&#9;&#9;C368.8,372.2,365.8,373.8,363.3,373.8z M126.9,298.1c1.2,3.1,3.6,5.5,6.6,6.9c1.6,0.7,222.6,67.4,229.8,67.4c3.4,0,4.1-4.3,4.1-8&#10;&#9;&#9;v-95.6c-79.3-24.9-229.5-71.7-235-71.7l0,0c-5,0.4-5.5,9.8-5.5,9.8L126.9,298.1z"/>
	<polygon class="st3_cake-28 targetColor" points="368.1,280 368.1,294.8 126.2,224 126.2,212.7 &#9;" style="fill: rgb(104, 225, 253);"/>
	<path class="st0_cake-28" d="M368.1,295.4h-0.2l-241.9-70.9c-0.3-0.1-0.5-0.3-0.4-0.6v-11.2c0-0.2,0.1-0.4,0.2-0.5c0.2-0.1,0.4-0.2,0.6-0.1&#10;&#9;&#9;l241.9,67.2c0.3,0.1,0.5,0.3,0.5,0.6v14.8c0,0.2-0.1,0.4-0.2,0.5C368.4,295.4,368.2,295.4,368.1,295.4z M126.8,223.5L367.5,294&#10;&#9;&#9;v-13.6l-240.6-66.9V223.5z"/>
	<polygon class="st3_cake-28 targetColor" points="368.1,303.2 368.1,318 126.2,247.2 126.2,236 &#9;" style="fill: rgb(104, 225, 253);"/>
	<path class="st0_cake-28" d="M368.1,318.6h-0.2l-241.9-70.9c-0.3-0.1-0.4-0.3-0.4-0.6V236c0-0.2,0.1-0.4,0.2-0.5c0.2-0.1,0.4-0.2,0.6-0.1&#10;&#9;&#9;l241.9,67.2c0.3,0.1,0.5,0.3,0.5,0.6V318c0,0.2-0.1,0.4-0.2,0.5C368.4,318.6,368.2,318.6,368.1,318.6z M126.8,246.7l240.6,70.5&#10;&#9;&#9;v-13.5l-240.6-66.9V246.7z"/>
	<polygon class="st3_cake-28 targetColor" points="368.1,326.4 368.1,341.2 126.2,270.4 126.2,259.2 &#9;" style="fill: rgb(104, 225, 253);"/>
	<path class="st0_cake-28" d="M368.1,341.9h-0.2L126.1,271c-0.3-0.1-0.5-0.3-0.4-0.6v-11.2c0-0.2,0.1-0.4,0.2-0.5c0.2-0.1,0.4-0.2,0.6-0.1&#10;&#9;&#9;l241.9,67.2c0.3,0.1,0.5,0.3,0.5,0.6v14.9c0,0.2-0.1,0.4-0.2,0.5C368.4,341.8,368.2,341.9,368.1,341.9z M126.8,269.9l240.6,70.5&#10;&#9;&#9;v-13.6L126.8,260V269.9z"/>
	<polygon class="st3_cake-28 targetColor" points="368.1,349.6 368.1,364.5 126.2,293.6 126.2,282.4 &#9;" style="fill: rgb(104, 225, 253);"/>
	<path class="st0_cake-28" d="M368.1,365.1h-0.2l-241.9-70.9c-0.3-0.1-0.5-0.3-0.4-0.6v-11.2c0-0.2,0.1-0.4,0.2-0.5c0.2-0.1,0.4-0.1,0.6-0.1&#10;&#9;&#9;L368.3,349c0.3,0.1,0.5,0.3,0.5,0.6v14.9c0,0.2-0.1,0.4-0.2,0.5C368.4,365,368.2,365.1,368.1,365.1z M126.8,293.2l240.6,70.5v-13.5&#10;&#9;&#9;l-240.6-66.9V293.2z"/>
	<path class="st3_cake-28 targetColor" d="M368.1,253.9c0,0,3.9,8.8,0,14.5s-235.3-65-238.8-64.4s-3.1,34.6-3.1,34.6s-6.6-5.3-5.7-10.5s3.8-6.6,0-11.4&#10;&#9;&#9;s-13.1-7-8.3-15.3s12.7-24.5,12.7-24.5s89.4,8.4,119.2,26.6S368.1,253.9,368.1,253.9z" style="fill: rgb(104, 225, 253);"/>
	<path class="st0_cake-28" d="M366.6,269.2c-11.5,0-70.4-16.5-176.6-47.4c-31.6-9.2-59-17.2-60.6-17.2c-1.8,0.7-2.7,18.2-2.5,34&#10;&#9;&#9;c0,0.2-0.1,0.5-0.4,0.6c-0.2,0.1-0.5,0.1-0.7-0.1c-0.3-0.2-6.8-5.6-5.9-11.1c0.2-1.4,0.6-2.7,1.2-4c0.9-2.4,1.4-3.8-1.1-6.9&#10;&#9;&#9;c-1.2-1.3-2.5-2.5-4-3.6c-3.8-2.8-8-6-4.3-12.5c4.8-8.2,12.6-24.3,12.7-24.5c0.1-0.2,0.4-0.4,0.6-0.4c0.9,0.1,89.9,8.6,119.5,26.6&#10;&#9;&#9;c29.4,17.9,122.9,50.2,123.9,50.5c0.2,0.1,0.3,0.2,0.4,0.3c0.2,0.4,4,9.1-0.1,15.1C368.4,269.1,367.7,269.2,366.6,269.2z&#10;&#9;&#9; M129.3,203.4c1.8,0,18.5,4.8,61.1,17.2c64.6,18.8,172.7,50.3,177.3,47.4c3.3-4.8,0.6-12.1,0-13.5c-5.6-1.9-95.1-33-123.9-50.5&#10;&#9;&#9;c-28.3-17.2-111.8-25.8-118.5-26.5c-1.2,2.5-8.2,16.7-12.5,24.2c-3.2,5.5,0.1,8,4,10.9c1.6,1.1,3,2.4,4.3,3.8&#10;&#9;&#9;c2.9,3.6,2.2,5.6,1.3,8.1c-0.5,1.2-0.9,2.5-1.1,3.8c-0.6,3.6,2.7,7.3,4.4,9C125.5,226.2,125.8,204,129.3,203.4L129.3,203.4z"/>
	<path class="st1_cake-28" d="M358.9,261.7c0,0-200.2-62.1-216.5-67.8s-21-10.9-17.5-17.1s100.5-34.2,108.5-32.4S365,248.2,368.1,253.9&#10;&#9;&#9;C371.2,259.6,366.7,264.2,358.9,261.7z"/>
	<path class="st0_cake-28" d="M363,263.1c-1.5,0-2.9-0.3-4.3-0.7c-2.2-0.7-200.5-62.2-216.5-67.9c-11.2-3.9-17.1-7.7-18.7-11.9&#10;&#9;&#9;c-0.7-2.1-0.4-4.4,0.8-6.2c2.6-4.5,44.6-17,53-19.5c24-7.1,51.9-14.2,56.3-13.3c5.6,1.2,58.9,44.7,69.5,53.4&#10;&#9;&#9;c30.6,25.1,64,53.4,65.6,56.5c1.5,2.7,1.4,5.4-0.2,7.3C367.2,262.4,365.1,263.3,363,263.1z M232.4,145c-5.5,0-28.2,5.5-54.8,13.3&#10;&#9;&#9;c-29.3,8.6-50.7,16.4-52.2,18.8c-1,1.5-1.2,3.4-0.7,5.1c1.4,3.7,7.2,7.3,17.8,11c16,5.6,214.4,67.2,216.4,67.8l0,0&#10;&#9;&#9;c3.6,1.2,6.9,0.8,8.4-1.1c1.2-1.4,1.2-3.5,0-5.7c-1.3-2.5-30.6-27.6-65.3-56c-37.9-31.1-65.6-52.4-68.9-53.2&#10;&#9;&#9;C233,145,232.7,145,232.4,145z"/>
	<path class="st1_cake-28" d="M231.1,194c-1.6,0.2-3.2,0.6-4.8,1.1c-15.6,4.5-32.8-1.6-45.6-11.7c-3.2-2.5-6.4-5.4-8-9.2&#10;&#9;&#9;c-3.7-8.3,0.8-18.4,7.9-24c1.7-1.4,3.6-2.6,4.8-4.3c2.9-4.1,1.7-9.9,4-14.2c3.2-5.9,11.4-7,15.6-12.2c3.5-4.3,3.5-10.7,6.5-15.3&#10;&#9;&#9;c2.6-4,7-6.3,10.6-9.4c4.2-3.6,7.3-8.4,8.9-13.8c2.7,3.8,3.9,8.3,6.3,12.2c0.8,1.1,1.4,2.3,2,3.5c0.5,1.6,0.9,3.2,1.2,4.8&#10;&#9;&#9;c2.5,9,15.4,9.3,16.4,19c0.2,2.2-0.4,4.6,0.5,6.7c1.3,3.1,5.1,4.1,8.1,5.7c4.1,2.3,6.9,6.3,9.6,10.1c2.5,3.4,4.8,7,6.8,10.7&#10;&#9;&#9;c3.2,6.2,5.1,13.4,4.2,20.3s-4.6,13.8-10.7,17.3c-7,4.1-14.7,2.6-22.3,3.5c-3,0.5-6,0.8-9,0.9C239.7,195.8,235.4,193.7,231.1,194z"/>
	<path class="st0_cake-28" d="M215.5,197.2c-11.6,0-24.1-4.6-35.2-13.3c-3.1-2.4-6.4-5.4-8.3-9.4c-4-8.9,1-19.2,8.1-24.8&#10;&#9;&#9;c0.4-0.3,0.7-0.6,1.1-0.8c1.4-0.9,2.6-2,3.6-3.3c1.4-2,1.8-4.5,2.1-7.2c0.2-2.4,0.8-4.8,1.9-7c1.8-3.4,5.2-5.2,8.5-7.1&#10;&#9;&#9;c2.6-1.5,5.4-3,7.2-5.2s2.6-5,3.5-7.9c0.6-2.6,1.7-5.1,3-7.4c1.8-2.8,4.6-4.8,7.2-6.8c1.2-0.9,2.4-1.8,3.6-2.8&#10;&#9;&#9;c4.1-3.6,7.1-8.2,8.7-13.5c0.1-0.3,0.3-0.4,0.6-0.5c0.3-0.1,0.5,0.1,0.7,0.3c1.5,2.2,2.8,4.6,3.8,7.1c0.7,1.8,1.6,3.5,2.5,5.2&#10;&#9;&#9;c0.2,0.3,0.4,0.6,0.6,1c1.2,1.7,2,3.6,2.2,5.7c0.1,0.6,0.2,1.2,0.4,1.8c1.1,4,4.4,6.2,7.9,8.4c3.9,2.6,8,5.2,8.5,10.7&#10;&#9;&#9;c0.1,0.9,0.1,1.7,0,2.6c-0.1,1.3,0,2.7,0.4,3.9c0.9,2.1,3.1,3.2,5.5,4.3c0.8,0.4,1.6,0.7,2.3,1.1c4.3,2.4,7.3,6.6,9.9,10.3&#10;&#9;&#9;c2.5,3.4,4.8,7.1,6.8,10.8c3.6,7,5.1,14.2,4.3,20.7c-0.9,7.7-5,14.3-11,17.8c-5,2.9-10.5,3.1-15.8,3.2c-2.2,0.1-4.6,0.1-6.8,0.4&#10;&#9;&#9;l-2.3,0.3c-2.2,0.4-4.5,0.6-6.8,0.6c-2.1-0.1-4.2-0.5-6.2-1c-2.2-0.6-4.5-0.9-6.8-0.9l0,0c-1.3,0.1-2.5,0.4-3.8,0.8l-0.9,0.3&#10;&#9;&#9;C222.9,196.8,219.2,197.3,215.5,197.2z M231.3,82.6c-1.7,4.9-4.7,9.3-8.6,12.8c-1.2,1-2.4,1.9-3.6,2.8c-2.7,1.9-5.2,3.8-6.9,6.4&#10;&#9;&#9;c-1.3,2.2-2.2,4.5-2.8,7c-0.9,2.9-1.8,5.9-3.7,8.4s-4.9,4.1-7.6,5.6c-3.2,1.8-6.3,3.5-7.9,6.5c-0.9,2-1.5,4.2-1.7,6.5&#10;&#9;&#9;c-0.4,2.7-0.8,5.5-2.4,7.8c-1.1,1.4-2.4,2.7-3.9,3.7c-0.4,0.3-0.7,0.5-1.1,0.8c-6.5,5.1-11.4,15-7.7,23.1c1.7,3.8,4.9,6.6,7.8,8.9&#10;&#9;&#9;c14.3,11.2,31.1,15.5,44.9,11.5l0.9-0.2c1.3-0.4,2.7-0.7,4.1-0.9l0,0c2.4,0,4.8,0.3,7.2,0.9c1.9,0.5,3.9,0.8,5.9,0.9&#10;&#9;&#9;c2.2,0,4.4-0.2,6.6-0.6l2.3-0.3c2.3-0.3,4.7-0.3,7-0.4c5.4-0.1,10.4-0.2,15.1-3c5.5-3.2,9.5-9.7,10.4-16.8&#10;&#9;&#9;c0.8-6.3-0.7-13.2-4.2-19.9c-2-3.7-4.3-7.3-6.8-10.6c-2.5-3.6-5.3-7.7-9.4-9.9c-0.7-0.4-1.5-0.7-2.2-1.1c-2.5-1.2-5.1-2.4-6.2-5&#10;&#9;&#9;c-0.5-1.5-0.7-3-0.5-4.5c0.1-0.8,0.1-1.6,0-2.4c-0.5-4.8-4.1-7.1-7.9-9.6c-3.6-2.3-7.2-4.7-8.5-9.2c-0.2-0.6-0.3-1.3-0.4-1.9&#10;&#9;&#9;c-0.2-1-0.4-1.9-0.7-2.8c-0.4-0.8-0.8-1.6-1.3-2.4c-0.2-0.3-0.4-0.7-0.6-1c-1-1.7-1.8-3.5-2.6-5.3&#10;&#9;&#9;C233.4,86.3,232.4,84.4,231.3,82.6z"/>
	<path class="st0_cake-28" d="M227.5,195.1c-7.7,0-21.6-3.6-26.1-11.6c-5.4-10.1-5.4-22.2,0-32.2c1.5-2.6,2.5-4.1,3.4-5.4&#10;&#9;&#9;c2.2-3.2,2.8-4.2,5.3-14.6c1-4.1,1.4-7,1.8-9.3c0.9-5.7,1.1-7.4,7.9-12.5c8.8-6.7,10.6-28.3,10.6-28.5c0.1-0.4,0.4-0.6,0.8-0.6&#10;&#9;&#9;c0.3,0.1,0.6,0.3,0.6,0.7c-0.1,0.9-1.8,22.4-11.1,29.5c-6.3,4.8-6.5,6.1-7.4,11.6c-0.3,2.2-0.8,5.3-1.8,9.5&#10;&#9;&#9;c-2.6,10.6-3.3,11.7-5.5,15c-0.8,1.2-1.9,2.8-3.3,5.3c-5.1,8.9-5.1,21.9,0,30.9s23.6,12,28.2,10.5c0.4-0.1,0.8,0.1,0.9,0.5&#10;&#9;&#9;c0.1,0.4-0.1,0.8-0.5,0.9l0,0C230.1,194.9,228.8,195.1,227.5,195.1z"/>
	<path class="st0_cake-28" d="M237.4,195.1c-0.9,0-1.3-0.7-2.2-2.4c-3-5.5-6.3-10.7-10.1-15.7c-11.3-15.4-8.3-21.6-4-30.1&#10;&#9;&#9;c4-7.9,3.1-9.8-0.2-16.8l-0.7-1.4c-3.8-8.1-0.6-12.7,3.1-18c3.9-5.6,8.4-12,7-24.7c-0.1-0.4,0.2-0.7,0.6-0.8&#10;&#9;&#9;c0.4-0.1,0.7,0.2,0.8,0.6c0,0,0,0,0,0.1c1.4,13.2-3.4,20.1-7.3,25.6c-3.6,5.2-6.5,9.3-3,16.6l0.7,1.4c3.4,7.1,4.5,9.5,0.2,18.1&#10;&#9;&#9;c-4.2,8.4-6.9,13.9,3.9,28.6c3.8,5,7.2,10.3,10.2,15.8c0.3,0.6,0.6,1.1,1,1.6c0.4-0.1,0.7,0.2,0.8,0.6c0.1,0.4-0.2,0.7-0.6,0.8&#10;&#9;&#9;c0,0-0.1,0-0.1,0L237.4,195.1z"/>
	<path class="st0_cake-28" d="M256.8,195.1h-0.2c-0.4-0.1-0.6-0.5-0.5-0.8c0,0,0,0,0,0c1.6-7-1.6-12-5.4-17.7c-1.7-2.5-3.2-5.1-4.6-7.7&#10;&#9;&#9;c-2.8-5.8-1.1-10,0.6-14.2c1.1-2.6,2-5.2,1.8-8s-3-5.6-5.9-8.6c-4.4-4.5-9.4-9.6-8.1-16.8c2.4-14-3.6-32.7-3.7-32.9l0.7-0.2l0,0&#10;&#9;&#9;l0.4-0.6c0.7,0.5,6.4,20.1,4,34c-1.1,6.5,3.6,11.3,7.8,15.6c3.1,3.1,6,6.1,6.3,9.4c0.3,3.2-0.8,5.9-1.9,8.6c-1.6,4-3.1,7.8-0.6,13&#10;&#9;&#9;c1.3,2.6,2.8,5.2,4.5,7.6c3.8,5.8,7.4,11.2,5.6,18.8C257.4,194.8,257.1,195.1,256.8,195.1z M231.6,88.8L231.6,88.8z"/>
	<path class="st0_cake-28" d="M270.8,194.1c-0.1,0-0.1,0-0.2,0c-0.4-0.1-0.6-0.5-0.5-0.9c0,0,0,0,0,0c0.1-0.2,6.8-21.8,4-31.1&#10;&#9;&#9;c-1.8-6-5.3-9-9-12.1c-2.3-1.8-4.4-3.8-6.2-6c-2-2.5-2.7-5.4-3.4-8.2c-0.4-2.1-1.1-4.2-2.1-6.1c-1-1.6-2.3-3-3.8-4.1&#10;&#9;&#9;c-2-1.7-4.1-3.5-5.1-6.3c-0.2-0.8-0.4-1.6-0.5-2.4c-0.1-0.6-0.2-1.1-0.3-1.7c-0.3-1.3-0.9-2.4-1.8-3.4c-0.5-0.5-1-1-1.6-1.5&#10;&#9;&#9;c-0.4-0.3-0.8-0.7-1.1-1c-2.8-2.7-8.4-22-8.4-25.3c0-0.4,0.3-0.7,0.7-0.7c0,0,0,0,0,0l0,0c0.4,0,0.7,0.3,0.7,0.7&#10;&#9;&#9;c0,3.3,5.6,22.1,7.9,24.3c0.4,0.3,0.7,0.6,1.1,1c0.6,0.5,1.2,1,1.7,1.6c1,1.1,1.8,2.5,2.1,4c0.1,0.6,0.2,1.2,0.3,1.8&#10;&#9;&#9;c0.1,0.7,0.2,1.5,0.4,2.2c0.8,2.4,2.7,4,4.6,5.7c1.6,1.2,3,2.8,4.1,4.5c1.1,2.1,1.8,4.2,2.3,6.5c0.7,2.8,1.3,5.4,3.1,7.6&#10;&#9;&#9;c1.8,2.1,3.8,4.1,6,5.9c3.9,3.3,7.5,6.4,9.4,12.8c2.9,9.7-3.7,31.1-4,31.9C271.3,194,271,194.1,270.8,194.1z"/>
	<circle class="st0_cake-28" cx="282.9" cy="188.2" r="20.8"/>
	<path class="st0_cake-28" d="M282.9,209.7c-11.9,0-21.6-9.7-21.6-21.6c0-11.9,9.7-21.6,21.6-21.6c11.9,0,21.6,9.7,21.6,21.6l0,0&#10;&#9;&#9;C304.4,200.1,294.8,209.7,282.9,209.7z M282.9,168.1c-11.1,0-20.1,9-20,20.1c0,11.1,9,20.1,20.1,20c11.1,0,20-9,20-20.1&#10;&#9;&#9;C303,177.1,294,168.1,282.9,168.1C282.9,168.1,282.9,168.1,282.9,168.1z"/>
	
		<ellipse transform="matrix(0.1602 -0.9871 0.9871 0.1602 11.7051 405.4377)" class="st0_cake-28" cx="244.1" cy="195.8" rx="15.6" ry="15.6"/>
	<path class="st0_cake-28" d="M244.1,212.2c-9,0-16.4-7.3-16.4-16.4c0-9,7.3-16.4,16.4-16.4c9,0,16.4,7.3,16.4,16.4c0,0,0,0,0,0&#10;&#9;&#9;C260.5,204.9,253.2,212.2,244.1,212.2z M244.1,181c-8.2,0-14.9,6.7-14.9,14.9c0,8.2,6.7,14.9,14.9,14.9c8.2,0,14.9-6.7,14.9-14.9&#10;&#9;&#9;C259,187.6,252.3,181,244.1,181L244.1,181z"/>
	<path class="st2_cake-28" d="M294,197.3c-0.4,0-0.7-0.3-0.7-0.7c0-0.1,0-0.2,0-0.2c1.9-5.2,1.9-10.8,0-16c-0.2-0.4,0-0.8,0.4-0.9&#10;&#9;&#9;c0.4-0.2,0.8,0,0.9,0.4c2,5.5,2,11.5,0,17C294.5,197.1,294.3,197.3,294,197.3z"/>
	<path class="st2_cake-28" d="M254.3,196.5c-0.3,0-0.6-0.2-0.7-0.6c-0.5-2.4-6.1-7.2-8.3-8.8c-0.3-0.3-0.3-0.7-0.1-1&#10;&#9;&#9;c0.2-0.3,0.6-0.3,0.9-0.1c0.8,0.6,8.1,6.3,8.8,9.7c0.1,0.4-0.2,0.7-0.6,0.8L254.3,196.5z"/>
	<path class="st2_cake-28" d="M299.7,223.5h-0.1l-16.8-3.6c-0.4-0.1-0.6-0.5-0.5-0.8s0.5-0.6,0.8-0.5l0,0l16.8,3.6c0.4,0.1,0.6,0.5,0.5,0.8&#10;&#9;&#9;C300.3,223.2,300,223.5,299.7,223.5z"/>
	<path class="st2_cake-28" d="M325.1,240.4c-0.3,0-0.6-0.2-0.7-0.5l-3.4-10.2c-0.1-0.4,0.1-0.8,0.4-0.9c0,0,0,0,0,0c0.4-0.1,0.8,0.1,0.9,0.4&#10;&#9;&#9;l3.5,10.2c0.1,0.4-0.1,0.8-0.4,0.9c0,0,0,0,0,0C325.3,240.4,325.2,240.5,325.1,240.4z"/>
	<path class="st2_cake-28" d="M153.6,185L153.6,185l-15.3-1c-0.4,0-0.7-0.4-0.6-0.7c0-0.4,0.4-0.7,0.7-0.7l15.3,1c0.4,0,0.7,0.3,0.7,0.7&#10;&#9;&#9;C154.3,184.7,154,185,153.6,185L153.6,185z"/>
	<path class="st2_cake-28" d="M218,212.1c-0.2,0-0.3-0.1-0.5-0.2l-11.8-10.3c-0.3-0.2-0.3-0.7-0.1-1c0,0,0,0,0,0c0.3-0.3,0.7-0.3,1-0.1&#10;&#9;&#9;l11.8,10.3c0.3,0.3,0.3,0.7,0.1,1C218.4,212,218.2,212.1,218,212.1L218,212.1z"/>
	<path class="st2_cake-28" d="M185.6,197.3h-0.1l-12.2-2.2c-0.4-0.1-0.6-0.4-0.6-0.8c0,0,0,0,0,0c0.1-0.4,0.4-0.6,0.8-0.6c0,0,0,0,0,0&#10;&#9;&#9;l12.2,2.2c0.4,0.1,0.6,0.4,0.6,0.8C186.3,197,186,197.3,185.6,197.3L185.6,197.3z"/>
	<path class="st2_cake-28" d="M269.7,219.9c-0.1,0-0.2,0-0.2,0c-1-0.4-8-1-12.2-1.4c-0.4-0.1-0.6-0.4-0.6-0.8c0.1-0.3,0.3-0.6,0.7-0.6&#10;&#9;&#9;c1.1,0.1,11.1,0.9,12.6,1.4c0.4,0.1,0.6,0.5,0.4,0.9C270.2,219.7,270,219.9,269.7,219.9L269.7,219.9z"/>
	<path class="st2_cake-28" d="M312.6,216.3c-0.1,0-0.2,0-0.3-0.1l-8.9-4.1c-0.4-0.2-0.5-0.6-0.3-0.9c0.2-0.4,0.6-0.5,0.9-0.3l8.9,4.1&#10;&#9;&#9;c0.4,0.2,0.5,0.6,0.3,0.9c0,0,0,0,0,0C313.1,216.1,312.8,216.3,312.6,216.3z"/>
	<path class="st2_cake-28" d="M351.2,246.2h-0.1c-1.6-0.3-11.8-0.1-15.6,0c-0.4,0-0.7-0.3-0.7-0.7c0,0,0,0,0,0c0-0.4,0.3-0.7,0.7-0.7&#10;&#9;&#9;c1.4,0,13.9-0.4,15.9,0c0.4,0.1,0.6,0.4,0.6,0.8c0,0,0,0,0,0C351.8,246,351.5,246.2,351.2,246.2z"/>
	<path class="st2_cake-28" d="M308.1,236.7H308c-0.9-0.2-8.9-2-10.9-4.5c-0.3-0.3-0.2-0.7,0.1-1c0,0,0,0,0,0c0.3-0.3,0.7-0.2,1,0.1&#10;&#9;&#9;c0,0,0,0,0,0c1.5,1.8,7.8,3.5,10.2,4c0.4,0.1,0.6,0.5,0.5,0.8C308.8,236.5,308.5,236.7,308.1,236.7z"/>
	<path class="st2_cake-28" d="M173.4,184c-0.2,0-0.3-0.1-0.5-0.2l-7.1-6.5c-0.3-0.3-0.3-0.7,0-1c0,0,0,0,0,0c0.3-0.3,0.7-0.3,1,0l7.1,6.5&#10;&#9;&#9;c0.3,0.3,0.3,0.7,0,1c0,0,0,0,0,0C173.8,183.9,173.6,184,173.4,184z"/>
	<path class="st2_cake-28" d="M245.5,219.8c0,0-10-3.2-11.2-3.6c-0.4-0.1-0.6-0.5-0.4-0.9c0.1-0.4,0.5-0.6,0.9-0.4&#10;&#9;&#9;c1.2,0.4,11.2,3.6,11.2,3.6L245.5,219.8z"/>
</g>
</svg>