<svg id="_0422_salad" xmlns="http://www.w3.org/2000/svg" viewBox="0 0 500 500" data-imageid="salad-6" imageName="Salad" class="illustrations_image" style="width: 188px;"><defs><style>.cls-1_salad-6{stroke:#68e1fd;}.cls-1_salad-6,.cls-2_salad-6,.cls-3_salad-6,.cls-4_salad-6{fill:none;stroke-miterlimit:10;}.cls-2_salad-6{opacity:.56;stroke:#fff;}.cls-5_salad-6{opacity:.19;}.cls-5_salad-6,.cls-6_salad-6,.cls-7_salad-6,.cls-8_salad-6{fill:#fff;}.cls-6_salad-6{opacity:.55;}.cls-3_salad-6{stroke:#24285b;}.cls-3_salad-6,.cls-4_salad-6{stroke-width:3px;}.cls-9_salad-6{fill:#e6e6e6;}.cls-7_salad-6{opacity:.57;}.cls-10_salad-6{fill:#000001;opacity:.11;}.cls-4_salad-6{stroke:#ffd200;}.cls-11_salad-6{fill:#24285b;}.cls-8_salad-6{opacity:.36;}.cls-12_salad-6{fill:#ffd200;}.cls-13_salad-6{fill:#68e1fd;}</style></defs><polygon id="plate_salad-6" class="cls-9_salad-6" points="65.03 340.35 424.18 340.35 487.22 448.77 12.78 448.77 65.03 340.35"/><g id="salad_salad-6"><path class="cls-12_salad-6" d="m162.79,242.58s5.08-21.57,17.39-19.33c12.32,2.24,8.96,15.67,20.44,7.28,11.49-8.4,37.14-20.33,39.22,3.36,2.08,23.7-81.28,63.88-77.06,8.69Z"/><path class="cls-10_salad-6" d="m162.79,242.58s5.08-21.57,17.39-19.33c12.32,2.24,8.96,15.67,20.44,7.28,11.49-8.4,37.14-20.33,39.22,3.36,2.08,23.7-81.28,63.88-77.06,8.69Z"/><path class="cls-11_salad-6" d="m208.24,86.11c.03,3.79-1.56,7.33-4.23,10.03-1.43,1.45-2.26,3.43-1.24,6.08,2.72,7.05,6.34,8.1,3.62,13.85-2.72,5.75,1.41,12.28,7.44,13.32s-1.02,10.44,7.86,12.14,6.22-3.52,13.04-1.43c6.82,2.09,13.35.44,15.18-4.74,1.83-5.18,2.87-8.87,8.88-11.86,6.01-2.99-3.85-12.13-1.53-17.88s-.03-10.19-5.78-14.89c-5.75-4.7-1.24-15.67-7.28-16.46-6.04-.78-9.98,4.96-13.63,1.04-3.65-3.92-10.7-3.4-13.83,1.83-2.38,3.97-8.53,3.87-8.49,8.97Z"/><path class="cls-10_salad-6" d="m208.24,86.11c.03,3.79-1.56,7.33-4.23,10.03-1.43,1.45-2.26,3.43-1.24,6.08,2.72,7.05,6.34,8.1,3.62,13.85-2.72,5.75,1.41,12.28,7.44,13.32s-1.02,10.44,7.86,12.14,6.22-3.52,13.04-1.43c6.82,2.09,13.35.44,15.18-4.74,1.83-5.18,2.87-8.87,8.88-11.86,6.01-2.99-3.85-12.13-1.53-17.88s-.03-10.19-5.78-14.89c-5.75-4.7-1.24-15.67-7.28-16.46-6.04-.78-9.98,4.96-13.63,1.04-3.65-3.92-10.7-3.4-13.83,1.83-2.38,3.97-8.53,3.87-8.49,8.97Z"/><path class="cls-13_salad-6 targetColor" d="m126.91,106.19s6.84-18.16,26.37-18.04c19.52.12,19.88,18.42,19.88,18.42l-5.67.95s-.64-12.82-13.1-12.76c-12.46.05-20.53,12.74-20.53,12.74l-6.95-1.31Z" style="fill: rgb(104, 225, 253);"/><path class="cls-8_salad-6" d="m126.91,106.19s6.84-18.16,26.37-18.04c19.52.12,19.88,18.42,19.88,18.42l-5.67.95s-.64-12.82-13.1-12.76c-12.46.05-20.53,12.74-20.53,12.74l-6.95-1.31Z"/><path class="cls-11_salad-6" d="m104.23,292.74l16.61,59.01c8.72,31,32.8,55.32,63.71,64.34h0c39.86,11.64,82.18,11.98,122.22.97l1.86-.51c33.49-9.21,59.1-36.23,66.49-70.17l11.69-53.64H104.23Z"/><ellipse class="cls-11_salad-6" cx="245.53" cy="292.74" rx="141.29" ry="29.41"/><path class="cls-13_salad-6 targetColor" d="m323.05,289.3s16.21-10.37,10.7-37.92-8.09-30.99,1.14-38.67c9.23-7.68,24.46-1.85,16.36-19.67-8.1-17.83,6.48-31.76,16.21-32.41,9.72-.65,7.78-23.66,21.72-23.66s29.17,17.83,16.21,34.68c-12.96,16.85-16.85,26.9-7.78,28.2,9.08,1.3,15.56,22.73,0,33.24-15.56,10.52,30.79,25.47-18.48,44.89-49.27,19.43-56.07,11.32-56.07,11.32Z" style="fill: rgb(104, 225, 253);"/><path class="cls-12_salad-6" d="m187.18,265.55s2.24-15.13,27.17-22.69c24.93-7.56,71.44-18.21,91.33,19.05,19.89,37.26-108.7,46.79-118.5,3.64Z"/><path class="cls-6_salad-6" d="m347.58,267.18c.24,0,1.32-2.85,2.58-6.44,3.17-9.02,2.83-18.91-.95-27.7l-3.36-7.8,7.97,10.64c1.8,2.4,5.56,1.73,6.41-1.15l6.6-22.19c.97-3.26.92-6.74-.14-9.97l-6.19-18.81,7.87,13.13c.94,1.57,3.27,1.37,3.92-.34,3.06-8.05,9.87-25.38,14.43-32.23l-12.42,52.53c-.51,2.14,1.64,3.95,3.66,3.09l14.13-5.98-15.75,14.15c-3.26,2.93-5.58,6.74-6.69,10.98l-3.3,12.64c-1.16,4.45,2.84,8.54,7.31,7.48l15.62-3.71-23.26,15.13-9.37,14.69-12.96,2.81-3.24-6.48,7.13-14.48Z"/><path class="cls-13_salad-6 targetColor" d="m180.18,288.25s-16.21-10.37-10.7-37.92c5.51-27.55,8.09-30.99-1.14-38.67s-24.46-1.85-16.36-19.67c8.1-17.83-6.48-31.76-16.21-32.41-9.72-.65-7.78-23.66-21.72-23.66-13.94,0-29.17,17.83-16.21,34.68,12.96,16.85,16.85,26.9,7.78,28.2-9.08,1.3-15.56,22.73,0,33.24,15.56,10.52-30.79,25.47,18.48,44.89,49.27,19.43,56.07,11.32,56.07,11.32Z" style="fill: rgb(104, 225, 253);"/><path class="cls-6_salad-6" d="m155.66,266.13c-.24,0-1.32-2.85-2.58-6.44-3.17-9.02-2.83-18.91.95-27.7l3.36-7.8-7.97,10.64c-1.8,2.4-5.56,1.73-6.41-1.15l-6.6-22.19c-.97-3.26-.92-6.74.14-9.97l6.19-18.81-7.87,13.13c-.94,1.57-3.27,1.37-3.92-.34-3.06-8.05-9.87-25.38-14.43-32.23l12.42,52.53c.51,2.14-1.64,3.95-3.66,3.09l-14.13-5.98,15.75,14.15c3.26,2.93,5.58,6.74,6.69,10.98l3.3,12.64c1.16,4.45-2.84,8.54-7.31,7.48l-15.62-3.71,23.26,15.13,9.37,14.69,12.96,2.81,3.24-6.48-7.13-14.48Z"/><path class="cls-13_salad-6 targetColor" d="m179.65,283.26c-2.8-6.38-4.4-13.2-5.15-20.13-.95-8.78-4.47-28.53-16.93-28.87-16.03-.45-5.79,23.6-19.15,12.02-13.36-11.58-11.58-21.39-29.39-12.03-17.81,9.36-13.5,61.46,3.29,68.3,16.79,6.85,45.32,20.45,107.16,19.95,0,0-27.44-11.02-39.82-39.25Z" style="fill: rgb(104, 225, 253);"/><path class="cls-8_salad-6" d="m179.65,283.26c-2.8-6.38-4.4-13.2-5.15-20.13-.95-8.78-4.47-28.53-16.93-28.87-16.03-.45-5.79,23.6-19.15,12.02-13.36-11.58-11.58-21.39-29.39-12.03-17.81,9.36-13.5,61.46,3.29,68.3,16.79,6.85,45.32,20.45,107.16,19.95,0,0-27.44-11.02-39.82-39.25Z"/><path class="cls-13_salad-6 targetColor" d="m136.72,311.83s-14.67-15.61,3.75-25.79c18.42-10.19,21.55.78,31.35-19.2,9.8-19.98,24.69-22.34,38.79,0,14.11,22.34,32.52-26.65,50.94-11.36,18.42,15.28,22.01,11.76,37.26,1.96,15.25-9.8,45.03,1.57,29.36,29-15.67,27.43-90.18,53.16-191.45,25.4Z" style="fill: rgb(104, 225, 253);"/><path class="cls-13_salad-6 targetColor" d="m205.65,322.52s45.44-8.54,50.79-37.93c5.34-29.39,28.06-29.84,32.96-12.47,4.9,17.37,8.02,30.28,20.93,8.02,12.92-22.27,34.29-56.11,43.2-33.4,8.91,22.71-23.6,37.41-7.57,40.53,16.03,3.12,16.03-32.51,33.4-26.72,17.37,5.79,14.64,26.67,4.87,37.83,0,0-28.51,32.91-178.57,24.15Z" style="fill: rgb(104, 225, 253);"/><path class="cls-10_salad-6" d="m205.65,322.52s45.44-8.54,50.79-37.93c5.34-29.39,28.06-29.84,32.96-12.47,4.9,17.37,8.02,30.28,20.93,8.02,12.92-22.27,34.29-56.11,43.2-33.4,8.91,22.71-23.6,37.41-7.57,40.53,16.03,3.12,16.03-32.51,33.4-26.72,17.37,5.79,14.64,26.67,4.87,37.83,0,0-28.51,32.91-178.57,24.15Z"/><path class="cls-12_salad-6" d="m167.94,158.47l49.34,49.34s21.91-25.74,2.98-46.67c-23.8-26.32-52.33-2.67-52.33-2.67Z"/><path class="cls-8_salad-6" d="m173.4,163.93s11.6-9.69,24.56-5.46c12.96,4.23,30.11,15.81,14.41,44.42l-38.97-38.97Z"/><ellipse class="cls-7_salad-6" cx="186.02" cy="167.87" rx="2.62" ry="5.29" transform="translate(-60.94 125.53) rotate(-32.33)"/><ellipse class="cls-7_salad-6" cx="205.84" cy="187.36" rx="2.62" ry="5.29" transform="translate(-72.19 200.43) rotate(-45)"/><ellipse class="cls-7_salad-6" cx="198.39" cy="167.36" rx="5.29" ry="2.62" transform="translate(-23.99 301.2) rotate(-71.19)"/><ellipse class="cls-7_salad-6" cx="207.08" cy="176.48" rx="5.29" ry="2.62" transform="translate(-39.67 61.85) rotate(-15.52)"/><path class="cls-12_salad-6" d="m335.68,163.03l-31.92-72.27s-33.66,18.22-22.24,48.05c14.37,37.52,54.15,24.22,54.15,24.22Z"/><path class="cls-8_salad-6" d="m332.15,155.04s-16.21,5.48-28.16-4.28c-11.95-9.77-25.32-29,2.95-52.79l25.21,57.08Z"/><ellipse class="cls-7_salad-6" cx="320.44" cy="145.71" rx="2.97" ry="5.99" transform="translate(-22.15 64.79) rotate(-11.16)"/><ellipse class="cls-7_salad-6" cx="307.48" cy="117.04" rx="2.97" ry="5.99" transform="translate(-21.07 134.19) rotate(-23.83)"/><ellipse class="cls-7_salad-6" cx="307.17" cy="141.2" rx="5.99" ry="2.97" transform="translate(1.61 285.85) rotate(-50.02)"/><ellipse class="cls-7_salad-6" cx="301.73" cy="128.02" rx="2.97" ry="5.99" transform="translate(144.62 415.67) rotate(-84.35)"/><circle class="cls-11_salad-6" cx="147.61" cy="186.39" r="10.89"/><circle class="cls-11_salad-6" cx="360.29" cy="143.05" r="6.68"/><circle class="cls-12_salad-6" cx="276.35" cy="56.37" r="5.13"/><circle class="cls-13_salad-6 targetColor" cx="252.86" cy="180.15" r="5.13" style="fill: rgb(104, 225, 253);"/><circle class="cls-13_salad-6 targetColor" cx="64.55" cy="254.62" r="5.13" style="fill: rgb(104, 225, 253);"/><path class="cls-11_salad-6" d="m126.1,101.39s6.84-18.16,26.37-18.04c19.52.12,19.88,18.42,19.88,18.42l-5.67.95s-.64-12.82-13.1-12.76c-12.46.05-20.53,12.74-20.53,12.74l-6.95-1.31Z"/><path class="cls-13_salad-6 targetColor" d="m321.29,193.94s-5.37,18.65-24.84,20.09c-19.47,1.45-21.29-16.77-21.29-16.77l5.57-1.4s1.67,12.72,14.08,11.67c12.42-1.05,19.44-14.34,19.44-14.34l7.03.75Z" style="fill: rgb(104, 225, 253);"/><path class="cls-8_salad-6" d="m321.29,193.94s-5.37,18.65-24.84,20.09c-19.47,1.45-21.29-16.77-21.29-16.77l5.57-1.4s1.67,12.72,14.08,11.67c12.42-1.05,19.44-14.34,19.44-14.34l7.03.75Z"/><path class="cls-11_salad-6" d="m322.47,198.66s-5.37,18.65-24.84,20.09c-19.47,1.45-21.29-16.77-21.29-16.77l5.57-1.4s1.67,12.72,14.08,11.67c12.42-1.05,19.44-14.34,19.44-14.34l7.03.75Z"/><path class="cls-11_salad-6" d="m201.45,86.11c.03,3.79-1.56,7.33-4.23,10.03-1.43,1.45-2.26,3.43-1.24,6.08,2.72,7.05,6.34,8.1,3.62,13.85-2.72,5.75,1.41,12.28,7.44,13.32s-1.02,10.44,7.86,12.14,6.22-3.52,13.04-1.43c6.82,2.09,13.35.44,15.18-4.74,1.83-5.18,2.87-8.87,8.88-11.86s-3.85-12.13-1.53-17.88c2.32-5.75-.03-10.19-5.78-14.89s-1.24-15.67-7.28-16.46c-6.04-.78-9.98,4.96-13.63,1.04-3.65-3.92-10.7-3.4-13.83,1.83-2.38,3.97-8.53,3.87-8.49,8.97Z"/><path class="cls-13_salad-6 targetColor" d="m209.04,93.01c.02,2.56-1.05,4.94-2.85,6.76-.96.98-1.52,2.31-.83,4.1,1.83,4.76,4.27,5.46,2.44,9.33-1.84,3.87.95,8.28,5.02,8.98s-.69,7.04,5.3,8.19,4.19-2.38,8.79-.97c4.6,1.41,9,.3,10.23-3.2,1.23-3.49,1.94-5.98,5.99-7.99,4.05-2.02-2.6-8.18-1.03-12.05s-.02-6.87-3.9-10.04c-3.87-3.17-.83-10.57-4.91-11.1-4.07-.53-6.73,3.35-9.19.7-2.46-2.64-7.21-2.29-9.33,1.23-1.61,2.68-5.75,2.61-5.72,6.05Z" style="fill: rgb(104, 225, 253);"/><path class="cls-6_salad-6" d="m216.96,100.21c.01,1.27-.52,2.45-1.41,3.35-.48.48-.75,1.15-.41,2.03.91,2.36,2.12,2.71,1.21,4.63s.47,4.11,2.49,4.46c2.02.35-.34,3.49,2.63,4.06s2.08-1.18,4.36-.48,4.46.15,5.08-1.59.96-2.97,2.97-3.97c2.01-1-1.29-4.06-.51-5.98s-.01-3.41-1.93-4.98c-1.92-1.57-.41-5.24-2.43-5.5-2.02-.26-3.34,1.66-4.56.35s-3.58-1.14-4.63.61c-.8,1.33-2.85,1.29-2.84,3Z"/><ellipse class="cls-5_salad-6" cx="248.25" cy="375.28" rx="39.22" ry="28.77"/><path class="cls-13_salad-6 targetColor" d="m335.86,98.49s-9.15-31.35,5.81-40.2c14.96-8.84,23.35,7,17.67,17.07s-23.49,23.13-23.49,23.13Z" style="fill: rgb(104, 225, 253);"/><path class="cls-4_salad-6" d="m59.71,153.77s-3.08-12.32,10.93-16.81"/><line class="cls-3_salad-6" x1="424.18" y1="239.21" x2="434.69" y2="228.57"/><line class="cls-4_salad-6" x1="405.66" y1="83.29" x2="415.73" y2="94.33"/><path class="cls-1_salad-6" d="m340.45,87.09s-11.52,16.81-1.43,33.62"/><path class="cls-2_salad-6" d="m340.45,87.09s-11.52,16.81-1.43,33.62"/></g></svg>